%TF.GenerationSoftware,KiCad,Pcbnew,10.0.3*%
%TF.CreationDate,2026-09-15T17:40:26+05:30*%
%TF.ProjectId,AC to DC converter,41432074-6f20-4444-9320-636f6e766572,rev?*%
%TF.SameCoordinates,Original*%
%TF.FileFunction,Legend,Bot*%
%TF.FilePolarity,Positive*%
%FSLAX46Y46*%
G04 Gerber Fmt 4.6, Leading zero omitted, Abs format (unit mm)*
G04 Created by KiCad (PCBNEW 10.0.3) date 2026-09-15 17:40:26*
%MOMM*%
%LPD*%
G01*
G04 APERTURE LIST*
%ADD10C,0.100000*%
%ADD11C,0.010000*%
G04 APERTURE END LIST*
D10*
X152862782Y-88270514D02*
X151434211Y-88270514D01*
X153148496Y-89127657D02*
X152148496Y-86127657D01*
X152148496Y-86127657D02*
X151148496Y-89127657D01*
X150148496Y-89127657D02*
X150148496Y-87127657D01*
X150148496Y-87699085D02*
X150005639Y-87413371D01*
X150005639Y-87413371D02*
X149862782Y-87270514D01*
X149862782Y-87270514D02*
X149577067Y-87127657D01*
X149577067Y-87127657D02*
X149291353Y-87127657D01*
X148291353Y-87127657D02*
X148291353Y-89127657D01*
X148291353Y-87413371D02*
X148148496Y-87270514D01*
X148148496Y-87270514D02*
X147862781Y-87127657D01*
X147862781Y-87127657D02*
X147434210Y-87127657D01*
X147434210Y-87127657D02*
X147148496Y-87270514D01*
X147148496Y-87270514D02*
X147005639Y-87556228D01*
X147005639Y-87556228D02*
X147005639Y-89127657D01*
X144291353Y-89127657D02*
X144291353Y-87556228D01*
X144291353Y-87556228D02*
X144434210Y-87270514D01*
X144434210Y-87270514D02*
X144719924Y-87127657D01*
X144719924Y-87127657D02*
X145291353Y-87127657D01*
X145291353Y-87127657D02*
X145577067Y-87270514D01*
X144291353Y-88984800D02*
X144577067Y-89127657D01*
X144577067Y-89127657D02*
X145291353Y-89127657D01*
X145291353Y-89127657D02*
X145577067Y-88984800D01*
X145577067Y-88984800D02*
X145719924Y-88699085D01*
X145719924Y-88699085D02*
X145719924Y-88413371D01*
X145719924Y-88413371D02*
X145577067Y-88127657D01*
X145577067Y-88127657D02*
X145291353Y-87984800D01*
X145291353Y-87984800D02*
X144577067Y-87984800D01*
X144577067Y-87984800D02*
X144291353Y-87841942D01*
X143148495Y-87127657D02*
X142434209Y-89127657D01*
X142434209Y-89127657D02*
X141719924Y-87127657D01*
X138291353Y-89127657D02*
X138291353Y-86127657D01*
X138291353Y-86127657D02*
X137148496Y-86127657D01*
X137148496Y-86127657D02*
X136862781Y-86270514D01*
X136862781Y-86270514D02*
X136719924Y-86413371D01*
X136719924Y-86413371D02*
X136577067Y-86699085D01*
X136577067Y-86699085D02*
X136577067Y-87127657D01*
X136577067Y-87127657D02*
X136719924Y-87413371D01*
X136719924Y-87413371D02*
X136862781Y-87556228D01*
X136862781Y-87556228D02*
X137148496Y-87699085D01*
X137148496Y-87699085D02*
X138291353Y-87699085D01*
X134005639Y-89127657D02*
X134005639Y-87556228D01*
X134005639Y-87556228D02*
X134148496Y-87270514D01*
X134148496Y-87270514D02*
X134434210Y-87127657D01*
X134434210Y-87127657D02*
X135005639Y-87127657D01*
X135005639Y-87127657D02*
X135291353Y-87270514D01*
X134005639Y-88984800D02*
X134291353Y-89127657D01*
X134291353Y-89127657D02*
X135005639Y-89127657D01*
X135005639Y-89127657D02*
X135291353Y-88984800D01*
X135291353Y-88984800D02*
X135434210Y-88699085D01*
X135434210Y-88699085D02*
X135434210Y-88413371D01*
X135434210Y-88413371D02*
X135291353Y-88127657D01*
X135291353Y-88127657D02*
X135005639Y-87984800D01*
X135005639Y-87984800D02*
X134291353Y-87984800D01*
X134291353Y-87984800D02*
X134005639Y-87841942D01*
X132577067Y-87127657D02*
X132577067Y-89127657D01*
X132577067Y-87413371D02*
X132434210Y-87270514D01*
X132434210Y-87270514D02*
X132148495Y-87127657D01*
X132148495Y-87127657D02*
X131719924Y-87127657D01*
X131719924Y-87127657D02*
X131434210Y-87270514D01*
X131434210Y-87270514D02*
X131291353Y-87556228D01*
X131291353Y-87556228D02*
X131291353Y-89127657D01*
X128577067Y-89127657D02*
X128577067Y-86127657D01*
X128577067Y-88984800D02*
X128862781Y-89127657D01*
X128862781Y-89127657D02*
X129434209Y-89127657D01*
X129434209Y-89127657D02*
X129719924Y-88984800D01*
X129719924Y-88984800D02*
X129862781Y-88841942D01*
X129862781Y-88841942D02*
X130005638Y-88556228D01*
X130005638Y-88556228D02*
X130005638Y-87699085D01*
X130005638Y-87699085D02*
X129862781Y-87413371D01*
X129862781Y-87413371D02*
X129719924Y-87270514D01*
X129719924Y-87270514D02*
X129434209Y-87127657D01*
X129434209Y-87127657D02*
X128862781Y-87127657D01*
X128862781Y-87127657D02*
X128577067Y-87270514D01*
X126005638Y-88984800D02*
X126291352Y-89127657D01*
X126291352Y-89127657D02*
X126862781Y-89127657D01*
X126862781Y-89127657D02*
X127148495Y-88984800D01*
X127148495Y-88984800D02*
X127291352Y-88699085D01*
X127291352Y-88699085D02*
X127291352Y-87556228D01*
X127291352Y-87556228D02*
X127148495Y-87270514D01*
X127148495Y-87270514D02*
X126862781Y-87127657D01*
X126862781Y-87127657D02*
X126291352Y-87127657D01*
X126291352Y-87127657D02*
X126005638Y-87270514D01*
X126005638Y-87270514D02*
X125862781Y-87556228D01*
X125862781Y-87556228D02*
X125862781Y-87841942D01*
X125862781Y-87841942D02*
X127291352Y-88127657D01*
X124862780Y-87127657D02*
X124148494Y-89127657D01*
X123434209Y-87127657D02*
X124148494Y-89127657D01*
X124148494Y-89127657D02*
X124434209Y-89841942D01*
X124434209Y-89841942D02*
X124577066Y-89984800D01*
X124577066Y-89984800D02*
X124862780Y-90127657D01*
D11*
%TO.C,REF\u002A\u002A*%
X130880353Y-82430797D02*
X130832715Y-82460469D01*
X130779176Y-82503823D01*
X130779176Y-83149785D01*
X130779347Y-83338738D01*
X130780077Y-83487604D01*
X130781695Y-83601655D01*
X130784529Y-83686159D01*
X130788908Y-83746386D01*
X130795159Y-83787608D01*
X130803611Y-83815093D01*
X130814592Y-83834113D01*
X130822379Y-83843485D01*
X130885537Y-83884654D01*
X130957457Y-83882975D01*
X131020458Y-83847870D01*
X131073998Y-83804516D01*
X131073998Y-82503823D01*
X131020458Y-82460469D01*
X130968785Y-82428933D01*
X130926587Y-82417116D01*
X130880353Y-82430797D01*
G36*
X130968785Y-82428933D02*
G01*
X131020458Y-82460469D01*
X131073998Y-82503823D01*
X131073998Y-83804516D01*
X131020458Y-83847870D01*
X130957457Y-83882975D01*
X130885537Y-83884654D01*
X130822379Y-83843485D01*
X130814592Y-83834113D01*
X130803611Y-83815093D01*
X130795159Y-83787608D01*
X130788908Y-83746386D01*
X130784529Y-83686159D01*
X130781695Y-83601655D01*
X130780077Y-83487604D01*
X130779347Y-83338738D01*
X130779176Y-83149785D01*
X130779176Y-82503823D01*
X130832715Y-82460469D01*
X130880353Y-82430797D01*
X130926587Y-82417116D01*
X130968785Y-82428933D01*
G37*
X145168730Y-82462473D02*
X145155509Y-82477687D01*
X145145139Y-82497314D01*
X145137273Y-82526611D01*
X145131567Y-82570836D01*
X145127677Y-82635247D01*
X145125258Y-82725101D01*
X145123964Y-82845657D01*
X145123452Y-83002171D01*
X145123373Y-83154169D01*
X145123513Y-83342701D01*
X145124162Y-83491133D01*
X145125666Y-83604724D01*
X145128369Y-83688732D01*
X145132616Y-83748413D01*
X145138752Y-83789025D01*
X145147121Y-83815827D01*
X145158069Y-83834076D01*
X145168730Y-83845866D01*
X145235031Y-83885403D01*
X145305676Y-83881854D01*
X145368884Y-83838734D01*
X145383407Y-83821900D01*
X145394757Y-83802367D01*
X145403325Y-83774738D01*
X145409502Y-83733612D01*
X145413678Y-83673591D01*
X145416245Y-83589274D01*
X145417592Y-83475263D01*
X145418112Y-83326157D01*
X145418194Y-83157346D01*
X145418194Y-82528447D01*
X145362528Y-82472781D01*
X145293914Y-82425948D01*
X145227357Y-82424261D01*
X145168730Y-82462473D01*
G36*
X145293914Y-82425948D02*
G01*
X145362528Y-82472781D01*
X145418194Y-82528447D01*
X145418194Y-83157346D01*
X145418112Y-83326157D01*
X145417592Y-83475263D01*
X145416245Y-83589274D01*
X145413678Y-83673591D01*
X145409502Y-83733612D01*
X145403325Y-83774738D01*
X145394757Y-83802367D01*
X145383407Y-83821900D01*
X145368884Y-83838734D01*
X145305676Y-83881854D01*
X145235031Y-83885403D01*
X145168730Y-83845866D01*
X145158069Y-83834076D01*
X145147121Y-83815827D01*
X145138752Y-83789025D01*
X145132616Y-83748413D01*
X145128369Y-83688732D01*
X145125666Y-83604724D01*
X145124162Y-83491133D01*
X145123513Y-83342701D01*
X145123373Y-83154169D01*
X145123452Y-83002171D01*
X145123964Y-82845657D01*
X145125258Y-82725101D01*
X145127677Y-82635247D01*
X145131567Y-82570836D01*
X145137273Y-82526611D01*
X145145139Y-82497314D01*
X145155509Y-82477687D01*
X145168730Y-82462473D01*
X145227357Y-82424261D01*
X145293914Y-82425948D01*
G37*
X144922844Y-69604844D02*
X144717742Y-69675957D01*
X144526785Y-69787889D01*
X144356243Y-69940625D01*
X144212387Y-70134151D01*
X144147768Y-70256129D01*
X144091842Y-70426743D01*
X144064735Y-70623711D01*
X144067738Y-70826205D01*
X144101067Y-71009699D01*
X144192162Y-71233924D01*
X144324258Y-71428422D01*
X144490642Y-71589367D01*
X144684598Y-71712933D01*
X144899414Y-71795292D01*
X145128375Y-71832617D01*
X145364767Y-71821082D01*
X145481291Y-71796430D01*
X145708385Y-71708091D01*
X145910081Y-71573290D01*
X146081515Y-71396183D01*
X146217820Y-71180927D01*
X146229352Y-71157419D01*
X146269217Y-71069205D01*
X146294249Y-70994910D01*
X146307839Y-70916535D01*
X146313382Y-70816080D01*
X146314302Y-70706774D01*
X146312780Y-70575448D01*
X146305914Y-70480509D01*
X146290250Y-70403753D01*
X146262333Y-70326974D01*
X146227873Y-70251223D01*
X146099338Y-70036190D01*
X145941052Y-69862080D01*
X145759287Y-69728876D01*
X145560313Y-69636566D01*
X145350400Y-69585134D01*
X145135821Y-69574565D01*
X144922844Y-69604844D01*
G36*
X145350400Y-69585134D02*
G01*
X145560313Y-69636566D01*
X145759287Y-69728876D01*
X145941052Y-69862080D01*
X146099338Y-70036190D01*
X146227873Y-70251223D01*
X146262333Y-70326974D01*
X146290250Y-70403753D01*
X146305914Y-70480509D01*
X146312780Y-70575448D01*
X146314302Y-70706774D01*
X146313382Y-70816080D01*
X146307839Y-70916535D01*
X146294249Y-70994910D01*
X146269217Y-71069205D01*
X146229352Y-71157419D01*
X146217820Y-71180927D01*
X146081515Y-71396183D01*
X145910081Y-71573290D01*
X145708385Y-71708091D01*
X145481291Y-71796430D01*
X145364767Y-71821082D01*
X145128375Y-71832617D01*
X144899414Y-71795292D01*
X144684598Y-71712933D01*
X144490642Y-71589367D01*
X144324258Y-71428422D01*
X144192162Y-71233924D01*
X144101067Y-71009699D01*
X144067738Y-70826205D01*
X144064735Y-70623711D01*
X144091842Y-70426743D01*
X144147768Y-70256129D01*
X144212387Y-70134151D01*
X144356243Y-69940625D01*
X144526785Y-69787889D01*
X144717742Y-69675957D01*
X144922844Y-69604844D01*
X145135821Y-69574565D01*
X145350400Y-69585134D01*
G37*
X129324537Y-82417310D02*
X129166419Y-82418070D01*
X129043692Y-82419660D01*
X128951374Y-82422345D01*
X128884481Y-82426390D01*
X128838032Y-82432060D01*
X128807043Y-82439620D01*
X128786532Y-82449335D01*
X128776606Y-82456803D01*
X128725089Y-82522165D01*
X128718857Y-82590028D01*
X128750693Y-82651677D01*
X128771512Y-82676312D01*
X128793915Y-82693110D01*
X128826383Y-82703570D01*
X128877394Y-82709195D01*
X128955430Y-82711483D01*
X129068970Y-82711935D01*
X129091269Y-82711937D01*
X129384444Y-82711937D01*
X129384444Y-83256223D01*
X129384637Y-83427782D01*
X129385514Y-83559789D01*
X129387522Y-83658045D01*
X129391106Y-83728356D01*
X129396713Y-83776523D01*
X129404789Y-83808351D01*
X129415782Y-83829642D01*
X129429801Y-83845866D01*
X129495961Y-83885734D01*
X129565026Y-83882592D01*
X129627660Y-83837105D01*
X129632262Y-83831468D01*
X129647243Y-83810158D01*
X129658657Y-83785225D01*
X129666986Y-83750609D01*
X129672713Y-83700253D01*
X129676321Y-83628098D01*
X129678294Y-83528086D01*
X129679114Y-83394158D01*
X129679265Y-83241825D01*
X129679265Y-82711937D01*
X129959233Y-82711937D01*
X130079378Y-82711124D01*
X130162555Y-82707956D01*
X130217137Y-82701339D01*
X130251494Y-82690179D01*
X130274000Y-82673384D01*
X130276733Y-82670464D01*
X130309594Y-82603690D01*
X130306688Y-82528200D01*
X130268908Y-82462473D01*
X130254298Y-82449724D01*
X130235460Y-82439615D01*
X130207372Y-82431840D01*
X130165010Y-82426095D01*
X130103350Y-82422074D01*
X130017368Y-82419472D01*
X129902042Y-82417982D01*
X129752348Y-82417299D01*
X129563262Y-82417119D01*
X129523028Y-82417116D01*
X129324537Y-82417310D01*
G36*
X129563262Y-82417119D02*
G01*
X129752348Y-82417299D01*
X129902042Y-82417982D01*
X130017368Y-82419472D01*
X130103350Y-82422074D01*
X130165010Y-82426095D01*
X130207372Y-82431840D01*
X130235460Y-82439615D01*
X130254298Y-82449724D01*
X130268908Y-82462473D01*
X130306688Y-82528200D01*
X130309594Y-82603690D01*
X130276733Y-82670464D01*
X130274000Y-82673384D01*
X130251494Y-82690179D01*
X130217137Y-82701339D01*
X130162555Y-82707956D01*
X130079378Y-82711124D01*
X129959233Y-82711937D01*
X129679265Y-82711937D01*
X129679265Y-83241825D01*
X129679114Y-83394158D01*
X129678294Y-83528086D01*
X129676321Y-83628098D01*
X129672713Y-83700253D01*
X129666986Y-83750609D01*
X129658657Y-83785225D01*
X129647243Y-83810158D01*
X129632262Y-83831468D01*
X129627660Y-83837105D01*
X129565026Y-83882592D01*
X129495961Y-83885734D01*
X129429801Y-83845866D01*
X129415782Y-83829642D01*
X129404789Y-83808351D01*
X129396713Y-83776523D01*
X129391106Y-83728356D01*
X129387522Y-83658045D01*
X129385514Y-83559789D01*
X129384637Y-83427782D01*
X129384444Y-83256223D01*
X129384444Y-82711937D01*
X129091269Y-82711937D01*
X129068970Y-82711935D01*
X128955430Y-82711483D01*
X128877394Y-82709195D01*
X128826383Y-82703570D01*
X128793915Y-82693110D01*
X128771512Y-82676312D01*
X128750693Y-82651677D01*
X128718857Y-82590028D01*
X128725089Y-82522165D01*
X128776606Y-82456803D01*
X128786532Y-82449335D01*
X128807043Y-82439620D01*
X128838032Y-82432060D01*
X128884481Y-82426390D01*
X128951374Y-82422345D01*
X129043692Y-82419660D01*
X129166419Y-82418070D01*
X129324537Y-82417310D01*
X129523028Y-82417116D01*
X129563262Y-82417119D01*
G37*
X126781718Y-82428097D02*
X126718681Y-82472781D01*
X126663015Y-82528447D01*
X126663015Y-83150080D01*
X126663161Y-83334659D01*
X126663850Y-83479383D01*
X126665463Y-83589755D01*
X126668380Y-83671276D01*
X126672978Y-83729449D01*
X126679639Y-83769777D01*
X126688742Y-83797760D01*
X126700666Y-83818903D01*
X126710019Y-83831468D01*
X126771755Y-83880835D01*
X126842643Y-83886193D01*
X126907434Y-83855919D01*
X126928843Y-83838046D01*
X126943154Y-83814305D01*
X126951786Y-83776075D01*
X126956158Y-83714733D01*
X126957690Y-83621660D01*
X126957837Y-83549758D01*
X126957837Y-83278902D01*
X127955694Y-83278902D01*
X127955694Y-83525307D01*
X127956726Y-83637982D01*
X127960854Y-83715418D01*
X127969629Y-83767708D01*
X127984598Y-83804944D01*
X128002697Y-83831468D01*
X128064779Y-83880696D01*
X128134988Y-83886525D01*
X128202201Y-83851535D01*
X128220552Y-83833193D01*
X128233512Y-83808877D01*
X128242061Y-83771001D01*
X128247175Y-83711978D01*
X128249831Y-83624222D01*
X128251009Y-83500146D01*
X128251146Y-83471669D01*
X128252118Y-83237892D01*
X128252619Y-83045228D01*
X128252456Y-82889435D01*
X128251435Y-82766271D01*
X128249363Y-82671493D01*
X128246047Y-82600859D01*
X128241293Y-82550126D01*
X128234909Y-82515052D01*
X128226700Y-82491393D01*
X128216473Y-82474909D01*
X128205158Y-82462473D01*
X128141151Y-82422694D01*
X128074397Y-82428097D01*
X128011360Y-82472781D01*
X127985851Y-82501610D01*
X127969591Y-82533455D01*
X127960519Y-82578808D01*
X127956574Y-82648166D01*
X127955695Y-82752022D01*
X127955694Y-82756264D01*
X127955694Y-82984080D01*
X126957837Y-82984080D01*
X126957837Y-82745955D01*
X126956819Y-82636251D01*
X126952729Y-82562176D01*
X126944015Y-82514027D01*
X126929125Y-82482101D01*
X126912480Y-82462473D01*
X126848473Y-82422694D01*
X126781718Y-82428097D01*
G36*
X128205158Y-82462473D02*
G01*
X128216473Y-82474909D01*
X128226700Y-82491393D01*
X128234909Y-82515052D01*
X128241293Y-82550126D01*
X128246047Y-82600859D01*
X128249363Y-82671493D01*
X128251435Y-82766271D01*
X128252456Y-82889435D01*
X128252619Y-83045228D01*
X128252118Y-83237892D01*
X128251146Y-83471669D01*
X128251009Y-83500146D01*
X128249831Y-83624222D01*
X128247175Y-83711978D01*
X128242061Y-83771001D01*
X128233512Y-83808877D01*
X128220552Y-83833193D01*
X128202201Y-83851535D01*
X128134988Y-83886525D01*
X128064779Y-83880696D01*
X128002697Y-83831468D01*
X127984598Y-83804944D01*
X127969629Y-83767708D01*
X127960854Y-83715418D01*
X127956726Y-83637982D01*
X127955694Y-83525307D01*
X127955694Y-83278902D01*
X126957837Y-83278902D01*
X126957837Y-83549758D01*
X126957690Y-83621660D01*
X126956158Y-83714733D01*
X126951786Y-83776075D01*
X126943154Y-83814305D01*
X126928843Y-83838046D01*
X126907434Y-83855919D01*
X126842643Y-83886193D01*
X126771755Y-83880835D01*
X126710019Y-83831468D01*
X126700666Y-83818903D01*
X126688742Y-83797760D01*
X126679639Y-83769777D01*
X126672978Y-83729449D01*
X126668380Y-83671276D01*
X126665463Y-83589755D01*
X126663850Y-83479383D01*
X126663161Y-83334659D01*
X126663015Y-83150080D01*
X126663015Y-82528447D01*
X126718681Y-82472781D01*
X126781718Y-82428097D01*
X126848473Y-82422694D01*
X126912480Y-82462473D01*
X126929125Y-82482101D01*
X126944015Y-82514027D01*
X126952729Y-82562176D01*
X126956819Y-82636251D01*
X126957837Y-82745955D01*
X126957837Y-82984080D01*
X127955694Y-82984080D01*
X127955694Y-82756264D01*
X127955695Y-82752022D01*
X127956574Y-82648166D01*
X127960519Y-82578808D01*
X127969591Y-82533455D01*
X127985851Y-82501610D01*
X128011360Y-82472781D01*
X128074397Y-82428097D01*
X128141151Y-82422694D01*
X128205158Y-82462473D01*
G37*
X137249270Y-82417534D02*
X136990159Y-82426295D01*
X136769774Y-82452863D01*
X136584481Y-82498828D01*
X136430645Y-82565783D01*
X136304634Y-82655316D01*
X136202813Y-82769019D01*
X136121549Y-82908482D01*
X136119950Y-82911883D01*
X136071451Y-83036702D01*
X136054171Y-83147246D01*
X136068175Y-83258497D01*
X136113532Y-83385433D01*
X136122134Y-83404749D01*
X136180794Y-83517806D01*
X136246720Y-83605165D01*
X136331806Y-83679427D01*
X136447946Y-83753191D01*
X136454693Y-83757042D01*
X136555796Y-83805608D01*
X136670071Y-83841879D01*
X136804859Y-83867106D01*
X136967505Y-83882539D01*
X137165351Y-83889431D01*
X137235253Y-83890030D01*
X137568116Y-83891223D01*
X137615119Y-83831468D01*
X137629062Y-83811819D01*
X137639939Y-83788873D01*
X137648129Y-83757129D01*
X137654013Y-83711082D01*
X137657969Y-83645233D01*
X137659259Y-83596402D01*
X137344623Y-83596402D01*
X137156020Y-83596402D01*
X137045655Y-83593174D01*
X136932359Y-83584681D01*
X136839375Y-83572703D01*
X136833762Y-83571694D01*
X136668610Y-83527388D01*
X136540510Y-83460822D01*
X136445410Y-83368907D01*
X136379257Y-83248555D01*
X136367753Y-83216658D01*
X136356478Y-83166980D01*
X136361360Y-83117900D01*
X136385113Y-83052607D01*
X136399431Y-83020532D01*
X136446318Y-82935297D01*
X136502809Y-82875499D01*
X136564965Y-82833857D01*
X136689468Y-82779668D01*
X136848806Y-82740415D01*
X137034427Y-82717812D01*
X137168864Y-82712837D01*
X137344623Y-82711937D01*
X137344623Y-83596402D01*
X137659259Y-83596402D01*
X137660378Y-83554078D01*
X137661619Y-83432115D01*
X137662072Y-83273841D01*
X137662123Y-83150080D01*
X137662123Y-82528447D01*
X137606457Y-82472781D01*
X137581752Y-82450218D01*
X137555039Y-82434766D01*
X137517736Y-82425098D01*
X137461257Y-82419887D01*
X137377022Y-82417805D01*
X137256445Y-82417524D01*
X137249270Y-82417534D01*
G36*
X137657969Y-83645233D02*
G01*
X137654013Y-83711082D01*
X137648129Y-83757129D01*
X137639939Y-83788873D01*
X137629062Y-83811819D01*
X137615119Y-83831468D01*
X137568116Y-83891223D01*
X137235253Y-83890030D01*
X137165351Y-83889431D01*
X136967505Y-83882539D01*
X136804859Y-83867106D01*
X136670071Y-83841879D01*
X136555796Y-83805608D01*
X136454693Y-83757042D01*
X136447946Y-83753191D01*
X136331806Y-83679427D01*
X136246720Y-83605165D01*
X136180794Y-83517806D01*
X136122134Y-83404749D01*
X136113532Y-83385433D01*
X136068175Y-83258497D01*
X136056655Y-83166980D01*
X136356478Y-83166980D01*
X136367753Y-83216658D01*
X136379257Y-83248555D01*
X136445410Y-83368907D01*
X136540510Y-83460822D01*
X136668610Y-83527388D01*
X136833762Y-83571694D01*
X136839375Y-83572703D01*
X136932359Y-83584681D01*
X137045655Y-83593174D01*
X137156020Y-83596402D01*
X137344623Y-83596402D01*
X137344623Y-82711937D01*
X137168864Y-82712837D01*
X137034427Y-82717812D01*
X136848806Y-82740415D01*
X136689468Y-82779668D01*
X136564965Y-82833857D01*
X136502809Y-82875499D01*
X136446318Y-82935297D01*
X136399431Y-83020532D01*
X136385113Y-83052607D01*
X136361360Y-83117900D01*
X136356478Y-83166980D01*
X136056655Y-83166980D01*
X136054171Y-83147246D01*
X136071451Y-83036702D01*
X136119950Y-82911883D01*
X136121549Y-82908482D01*
X136202813Y-82769019D01*
X136304634Y-82655316D01*
X136430645Y-82565783D01*
X136584481Y-82498828D01*
X136769774Y-82452863D01*
X136990159Y-82426295D01*
X137249270Y-82417534D01*
X137256445Y-82417524D01*
X137377022Y-82417805D01*
X137461257Y-82419887D01*
X137517736Y-82425098D01*
X137555039Y-82434766D01*
X137581752Y-82450218D01*
X137606457Y-82472781D01*
X137662123Y-82528447D01*
X137662123Y-83150080D01*
X137662072Y-83273841D01*
X137661619Y-83432115D01*
X137660378Y-83554078D01*
X137659259Y-83596402D01*
X137657969Y-83645233D01*
G37*
X151592377Y-82417114D02*
X151513060Y-82417920D01*
X151280649Y-82423528D01*
X151086006Y-82440185D01*
X150922496Y-82469680D01*
X150783486Y-82513797D01*
X150662341Y-82574325D01*
X150552429Y-82653050D01*
X150513171Y-82687248D01*
X150448049Y-82767265D01*
X150389328Y-82875846D01*
X150344069Y-82996203D01*
X150319335Y-83111547D01*
X150316765Y-83154169D01*
X150332870Y-83272322D01*
X150376027Y-83401382D01*
X150438504Y-83523542D01*
X150512567Y-83620992D01*
X150524597Y-83632750D01*
X150626499Y-83715394D01*
X150738088Y-83779909D01*
X150865798Y-83827983D01*
X151016062Y-83861307D01*
X151195314Y-83881572D01*
X151409987Y-83890469D01*
X151508317Y-83891223D01*
X151633340Y-83890621D01*
X151721262Y-83888104D01*
X151780333Y-83882604D01*
X151818800Y-83873055D01*
X151844912Y-83858389D01*
X151858908Y-83845866D01*
X151872129Y-83830652D01*
X151882500Y-83811025D01*
X151890365Y-83781728D01*
X151896071Y-83737503D01*
X151899961Y-83673092D01*
X151902380Y-83583237D01*
X151903674Y-83462682D01*
X151904186Y-83306167D01*
X151904265Y-83154169D01*
X151904765Y-82951440D01*
X151904657Y-82789491D01*
X151902728Y-82711937D01*
X151609444Y-82711937D01*
X151609444Y-83596402D01*
X151422346Y-83596230D01*
X151309764Y-83593001D01*
X151191852Y-83584683D01*
X151093473Y-83573048D01*
X151090480Y-83572569D01*
X150931480Y-83534127D01*
X150808154Y-83474256D01*
X150714343Y-83389058D01*
X150654737Y-83296814D01*
X150618010Y-83194489D01*
X150620858Y-83098409D01*
X150663482Y-82995419D01*
X150746854Y-82888876D01*
X150862386Y-82809927D01*
X151012557Y-82757156D01*
X151112919Y-82738481D01*
X151226843Y-82725366D01*
X151347585Y-82715873D01*
X151450281Y-82711927D01*
X151456364Y-82711908D01*
X151609444Y-82711937D01*
X151902728Y-82711937D01*
X151901529Y-82663782D01*
X151892966Y-82569771D01*
X151876558Y-82502920D01*
X151849890Y-82458686D01*
X151810551Y-82432529D01*
X151756128Y-82419909D01*
X151684207Y-82416284D01*
X151592377Y-82417114D01*
G36*
X151904657Y-82789491D02*
G01*
X151904765Y-82951440D01*
X151904265Y-83154169D01*
X151904186Y-83306167D01*
X151903674Y-83462682D01*
X151902380Y-83583237D01*
X151899961Y-83673092D01*
X151896071Y-83737503D01*
X151890365Y-83781728D01*
X151882500Y-83811025D01*
X151872129Y-83830652D01*
X151858908Y-83845866D01*
X151844912Y-83858389D01*
X151818800Y-83873055D01*
X151780333Y-83882604D01*
X151721262Y-83888104D01*
X151633340Y-83890621D01*
X151508317Y-83891223D01*
X151409987Y-83890469D01*
X151195314Y-83881572D01*
X151016062Y-83861307D01*
X150865798Y-83827983D01*
X150738088Y-83779909D01*
X150626499Y-83715394D01*
X150524597Y-83632750D01*
X150512567Y-83620992D01*
X150438504Y-83523542D01*
X150376027Y-83401382D01*
X150332870Y-83272322D01*
X150322261Y-83194489D01*
X150618010Y-83194489D01*
X150654737Y-83296814D01*
X150714343Y-83389058D01*
X150808154Y-83474256D01*
X150931480Y-83534127D01*
X151090480Y-83572569D01*
X151093473Y-83573048D01*
X151191852Y-83584683D01*
X151309764Y-83593001D01*
X151422346Y-83596230D01*
X151609444Y-83596402D01*
X151609444Y-82711937D01*
X151456364Y-82711908D01*
X151450281Y-82711927D01*
X151347585Y-82715873D01*
X151226843Y-82725366D01*
X151112919Y-82738481D01*
X151012557Y-82757156D01*
X150862386Y-82809927D01*
X150746854Y-82888876D01*
X150663482Y-82995419D01*
X150620858Y-83098409D01*
X150618010Y-83194489D01*
X150322261Y-83194489D01*
X150316765Y-83154169D01*
X150319335Y-83111547D01*
X150344069Y-82996203D01*
X150389328Y-82875846D01*
X150448049Y-82767265D01*
X150513171Y-82687248D01*
X150552429Y-82653050D01*
X150662341Y-82574325D01*
X150783486Y-82513797D01*
X150922496Y-82469680D01*
X151086006Y-82440185D01*
X151280649Y-82423528D01*
X151513060Y-82417920D01*
X151592377Y-82417114D01*
X151684207Y-82416284D01*
X151756128Y-82419909D01*
X151810551Y-82432529D01*
X151849890Y-82458686D01*
X151876558Y-82502920D01*
X151892966Y-82569771D01*
X151901529Y-82663782D01*
X151902728Y-82711937D01*
X151904657Y-82789491D01*
G37*
X141906815Y-82425918D02*
X141859473Y-82453690D01*
X141797572Y-82499108D01*
X141717903Y-82564312D01*
X141617260Y-82651440D01*
X141492432Y-82762633D01*
X141340212Y-82900030D01*
X141165962Y-83057999D01*
X140803105Y-83387050D01*
X140791765Y-82945388D01*
X140787671Y-82793357D01*
X140783722Y-82680140D01*
X140779042Y-82599203D01*
X140772759Y-82544016D01*
X140763998Y-82508045D01*
X140751886Y-82484758D01*
X140735549Y-82467622D01*
X140726887Y-82460421D01*
X140657517Y-82422346D01*
X140591507Y-82427913D01*
X140539144Y-82460440D01*
X140485605Y-82503765D01*
X140478946Y-83136482D01*
X140477103Y-83322564D01*
X140476165Y-83468744D01*
X140476457Y-83580474D01*
X140478303Y-83663205D01*
X140482030Y-83722389D01*
X140487960Y-83763476D01*
X140496420Y-83791919D01*
X140507733Y-83813168D01*
X140520280Y-83830211D01*
X140547424Y-83861818D01*
X140574433Y-83882769D01*
X140605050Y-83890811D01*
X140643023Y-83883688D01*
X140692098Y-83859149D01*
X140756020Y-83814937D01*
X140838535Y-83748799D01*
X140943390Y-83658482D01*
X141074331Y-83541731D01*
X141222658Y-83407582D01*
X141755605Y-82924152D01*
X141766944Y-83364370D01*
X141771045Y-83516124D01*
X141775005Y-83629077D01*
X141779701Y-83709775D01*
X141786013Y-83764764D01*
X141794817Y-83800588D01*
X141806992Y-83823793D01*
X141823417Y-83840924D01*
X141831823Y-83847906D01*
X141906114Y-83886257D01*
X141976312Y-83880472D01*
X142037441Y-83831468D01*
X142051425Y-83811753D01*
X142062324Y-83788729D01*
X142070521Y-83756872D01*
X142076400Y-83710658D01*
X142080344Y-83644563D01*
X142082736Y-83553062D01*
X142083959Y-83430634D01*
X142084398Y-83271752D01*
X142084444Y-83154169D01*
X142084297Y-82970256D01*
X142083599Y-82826175D01*
X142081967Y-82716403D01*
X142079019Y-82635416D01*
X142074369Y-82577691D01*
X142067637Y-82537704D01*
X142058437Y-82509930D01*
X142046386Y-82488846D01*
X142037441Y-82476871D01*
X142014766Y-82448503D01*
X141993575Y-82427085D01*
X141970658Y-82414755D01*
X141942808Y-82413653D01*
X141906815Y-82425918D01*
G36*
X141970658Y-82414755D02*
G01*
X141993575Y-82427085D01*
X142014766Y-82448503D01*
X142037441Y-82476871D01*
X142046386Y-82488846D01*
X142058437Y-82509930D01*
X142067637Y-82537704D01*
X142074369Y-82577691D01*
X142079019Y-82635416D01*
X142081967Y-82716403D01*
X142083599Y-82826175D01*
X142084297Y-82970256D01*
X142084444Y-83154169D01*
X142084398Y-83271752D01*
X142083959Y-83430634D01*
X142082736Y-83553062D01*
X142080344Y-83644563D01*
X142076400Y-83710658D01*
X142070521Y-83756872D01*
X142062324Y-83788729D01*
X142051425Y-83811753D01*
X142037441Y-83831468D01*
X141976312Y-83880472D01*
X141906114Y-83886257D01*
X141831823Y-83847906D01*
X141823417Y-83840924D01*
X141806992Y-83823793D01*
X141794817Y-83800588D01*
X141786013Y-83764764D01*
X141779701Y-83709775D01*
X141775005Y-83629077D01*
X141771045Y-83516124D01*
X141766944Y-83364370D01*
X141755605Y-82924152D01*
X141222658Y-83407582D01*
X141074331Y-83541731D01*
X140943390Y-83658482D01*
X140838535Y-83748799D01*
X140756020Y-83814937D01*
X140692098Y-83859149D01*
X140643023Y-83883688D01*
X140605050Y-83890811D01*
X140574433Y-83882769D01*
X140547424Y-83861818D01*
X140520280Y-83830211D01*
X140507733Y-83813168D01*
X140496420Y-83791919D01*
X140487960Y-83763476D01*
X140482030Y-83722389D01*
X140478303Y-83663205D01*
X140476457Y-83580474D01*
X140476165Y-83468744D01*
X140477103Y-83322564D01*
X140478946Y-83136482D01*
X140485605Y-82503765D01*
X140539144Y-82460440D01*
X140591507Y-82427913D01*
X140657517Y-82422346D01*
X140726887Y-82460421D01*
X140735549Y-82467622D01*
X140751886Y-82484758D01*
X140763998Y-82508045D01*
X140772759Y-82544016D01*
X140779042Y-82599203D01*
X140783722Y-82680140D01*
X140787671Y-82793357D01*
X140791765Y-82945388D01*
X140803105Y-83387050D01*
X141165962Y-83057999D01*
X141340212Y-82900030D01*
X141492432Y-82762633D01*
X141617260Y-82651440D01*
X141717903Y-82564312D01*
X141797572Y-82499108D01*
X141859473Y-82453690D01*
X141906815Y-82425918D01*
X141942808Y-82413653D01*
X141970658Y-82414755D01*
G37*
X143212553Y-82428229D02*
X143074908Y-82451325D01*
X142969194Y-82487228D01*
X142900420Y-82534501D01*
X142881679Y-82561471D01*
X142862621Y-82624198D01*
X142875446Y-82680945D01*
X142915933Y-82734758D01*
X142978842Y-82759933D01*
X143070123Y-82757888D01*
X143140724Y-82744249D01*
X143297606Y-82718263D01*
X143457934Y-82715793D01*
X143637389Y-82736886D01*
X143686958Y-82745823D01*
X143853823Y-82792869D01*
X143984366Y-82862852D01*
X144077156Y-82954579D01*
X144130761Y-83066857D01*
X144141848Y-83124905D01*
X144134591Y-83242676D01*
X144087739Y-83346873D01*
X144005562Y-83435465D01*
X143892329Y-83506421D01*
X143752309Y-83557710D01*
X143589771Y-83587302D01*
X143408985Y-83593166D01*
X143214218Y-83573271D01*
X143203221Y-83571395D01*
X143125754Y-83556966D01*
X143082802Y-83543029D01*
X143064185Y-83522349D01*
X143059724Y-83487693D01*
X143059623Y-83469341D01*
X143059623Y-83392294D01*
X143197185Y-83392294D01*
X143318662Y-83383973D01*
X143401561Y-83357455D01*
X143449794Y-83310412D01*
X143467276Y-83240513D01*
X143467490Y-83231390D01*
X143457261Y-83171645D01*
X143422188Y-83128984D01*
X143356910Y-83100752D01*
X143256070Y-83084294D01*
X143158395Y-83078243D01*
X143016431Y-83074771D01*
X142913457Y-83080069D01*
X142843227Y-83099616D01*
X142799494Y-83138896D01*
X142776010Y-83203389D01*
X142766529Y-83298577D01*
X142764801Y-83423598D01*
X142767632Y-83563146D01*
X142776147Y-83658070D01*
X142790386Y-83708747D01*
X142793149Y-83712716D01*
X142871330Y-83776039D01*
X142985955Y-83826185D01*
X143129760Y-83862085D01*
X143295476Y-83882667D01*
X143475838Y-83886860D01*
X143663578Y-83873592D01*
X143773998Y-83857295D01*
X143947188Y-83808274D01*
X144108154Y-83728133D01*
X144242924Y-83624121D01*
X144263408Y-83603332D01*
X144329961Y-83515936D01*
X144390011Y-83407621D01*
X144436544Y-83294063D01*
X144462543Y-83190940D01*
X144465676Y-83151334D01*
X144452336Y-83068717D01*
X144416880Y-82965926D01*
X144366111Y-82857729D01*
X144306832Y-82758892D01*
X144254459Y-82692875D01*
X144132006Y-82594675D01*
X143973712Y-82516515D01*
X143785249Y-82460162D01*
X143572290Y-82427386D01*
X143377123Y-82419377D01*
X143212553Y-82428229D01*
G36*
X143572290Y-82427386D02*
G01*
X143785249Y-82460162D01*
X143973712Y-82516515D01*
X144132006Y-82594675D01*
X144254459Y-82692875D01*
X144306832Y-82758892D01*
X144366111Y-82857729D01*
X144416880Y-82965926D01*
X144452336Y-83068717D01*
X144465676Y-83151334D01*
X144462543Y-83190940D01*
X144436544Y-83294063D01*
X144390011Y-83407621D01*
X144329961Y-83515936D01*
X144263408Y-83603332D01*
X144242924Y-83624121D01*
X144108154Y-83728133D01*
X143947188Y-83808274D01*
X143773998Y-83857295D01*
X143663578Y-83873592D01*
X143475838Y-83886860D01*
X143295476Y-83882667D01*
X143129760Y-83862085D01*
X142985955Y-83826185D01*
X142871330Y-83776039D01*
X142793149Y-83712716D01*
X142790386Y-83708747D01*
X142776147Y-83658070D01*
X142767632Y-83563146D01*
X142764801Y-83423598D01*
X142766529Y-83298577D01*
X142776010Y-83203389D01*
X142799494Y-83138896D01*
X142843227Y-83099616D01*
X142913457Y-83080069D01*
X143016431Y-83074771D01*
X143158395Y-83078243D01*
X143256070Y-83084294D01*
X143356910Y-83100752D01*
X143422188Y-83128984D01*
X143457261Y-83171645D01*
X143467490Y-83231390D01*
X143467276Y-83240513D01*
X143449794Y-83310412D01*
X143401561Y-83357455D01*
X143318662Y-83383973D01*
X143197185Y-83392294D01*
X143059623Y-83392294D01*
X143059623Y-83469341D01*
X143059724Y-83487693D01*
X143064185Y-83522349D01*
X143082802Y-83543029D01*
X143125754Y-83556966D01*
X143203221Y-83571395D01*
X143214218Y-83573271D01*
X143408985Y-83593166D01*
X143589771Y-83587302D01*
X143752309Y-83557710D01*
X143892329Y-83506421D01*
X144005562Y-83435465D01*
X144087739Y-83346873D01*
X144134591Y-83242676D01*
X144141848Y-83124905D01*
X144130761Y-83066857D01*
X144077156Y-82954579D01*
X143984366Y-82862852D01*
X143853823Y-82792869D01*
X143686958Y-82745823D01*
X143637389Y-82736886D01*
X143457934Y-82715793D01*
X143297606Y-82718263D01*
X143140724Y-82744249D01*
X143070123Y-82757888D01*
X142978842Y-82759933D01*
X142915933Y-82734758D01*
X142875446Y-82680945D01*
X142862621Y-82624198D01*
X142881679Y-82561471D01*
X142900420Y-82534501D01*
X142969194Y-82487228D01*
X143074908Y-82451325D01*
X143212553Y-82428229D01*
X143377123Y-82419377D01*
X143572290Y-82427386D01*
G37*
X138832237Y-82417503D02*
X138678838Y-82419340D01*
X138561285Y-82423634D01*
X138474824Y-82431395D01*
X138414700Y-82443633D01*
X138376160Y-82461358D01*
X138354448Y-82485579D01*
X138344810Y-82517305D01*
X138342492Y-82557546D01*
X138342480Y-82562298D01*
X138344492Y-82607814D01*
X138354005Y-82642992D01*
X138376229Y-82669251D01*
X138416378Y-82688012D01*
X138479664Y-82700696D01*
X138571298Y-82708722D01*
X138696493Y-82713512D01*
X138860461Y-82716484D01*
X138910717Y-82717143D01*
X139397033Y-82723277D01*
X139403835Y-82853678D01*
X139410636Y-82984080D01*
X139072841Y-82984080D01*
X138940873Y-82984567D01*
X138846643Y-82986626D01*
X138782535Y-82991155D01*
X138740936Y-82999053D01*
X138714230Y-83011218D01*
X138694802Y-83028548D01*
X138694678Y-83028686D01*
X138659443Y-83096224D01*
X138660717Y-83169221D01*
X138697696Y-83231448D01*
X138705015Y-83237844D01*
X138730990Y-83254328D01*
X138766583Y-83265796D01*
X138819727Y-83273111D01*
X138898352Y-83277138D01*
X139010390Y-83278740D01*
X139082046Y-83278902D01*
X139408373Y-83278902D01*
X139408373Y-83596402D01*
X138912959Y-83596402D01*
X138749394Y-83596688D01*
X138625183Y-83597857D01*
X138534325Y-83600377D01*
X138470820Y-83604715D01*
X138428667Y-83611337D01*
X138401864Y-83620710D01*
X138384411Y-83633302D01*
X138380013Y-83637875D01*
X138347540Y-83701249D01*
X138345164Y-83773347D01*
X138371805Y-83835858D01*
X138392883Y-83855919D01*
X138414810Y-83866963D01*
X138448785Y-83875508D01*
X138500182Y-83881852D01*
X138574375Y-83886295D01*
X138676739Y-83889136D01*
X138812647Y-83890675D01*
X138987475Y-83891210D01*
X139027000Y-83891223D01*
X139204756Y-83891107D01*
X139342738Y-83890465D01*
X139446524Y-83888857D01*
X139521697Y-83885844D01*
X139573839Y-83880986D01*
X139608529Y-83873844D01*
X139631350Y-83863977D01*
X139647883Y-83850946D01*
X139656953Y-83841589D01*
X139670606Y-83825017D01*
X139681272Y-83804487D01*
X139689320Y-83774616D01*
X139695116Y-83730021D01*
X139699027Y-83665317D01*
X139701423Y-83575120D01*
X139702670Y-83454047D01*
X139703136Y-83296713D01*
X139703194Y-83164291D01*
X139703051Y-82978735D01*
X139702374Y-82833065D01*
X139700788Y-82721811D01*
X139697919Y-82639501D01*
X139693393Y-82580666D01*
X139686836Y-82539834D01*
X139677874Y-82511535D01*
X139666133Y-82490298D01*
X139656191Y-82476871D01*
X139609188Y-82417116D01*
X139026237Y-82417116D01*
X138832237Y-82417503D01*
G36*
X139656191Y-82476871D02*
G01*
X139666133Y-82490298D01*
X139677874Y-82511535D01*
X139686836Y-82539834D01*
X139693393Y-82580666D01*
X139697919Y-82639501D01*
X139700788Y-82721811D01*
X139702374Y-82833065D01*
X139703051Y-82978735D01*
X139703194Y-83164291D01*
X139703136Y-83296713D01*
X139702670Y-83454047D01*
X139701423Y-83575120D01*
X139699027Y-83665317D01*
X139695116Y-83730021D01*
X139689320Y-83774616D01*
X139681272Y-83804487D01*
X139670606Y-83825017D01*
X139656953Y-83841589D01*
X139647883Y-83850946D01*
X139631350Y-83863977D01*
X139608529Y-83873844D01*
X139573839Y-83880986D01*
X139521697Y-83885844D01*
X139446524Y-83888857D01*
X139342738Y-83890465D01*
X139204756Y-83891107D01*
X139027000Y-83891223D01*
X138987475Y-83891210D01*
X138812647Y-83890675D01*
X138676739Y-83889136D01*
X138574375Y-83886295D01*
X138500182Y-83881852D01*
X138448785Y-83875508D01*
X138414810Y-83866963D01*
X138392883Y-83855919D01*
X138371805Y-83835858D01*
X138345164Y-83773347D01*
X138347540Y-83701249D01*
X138380013Y-83637875D01*
X138384411Y-83633302D01*
X138401864Y-83620710D01*
X138428667Y-83611337D01*
X138470820Y-83604715D01*
X138534325Y-83600377D01*
X138625183Y-83597857D01*
X138749394Y-83596688D01*
X138912959Y-83596402D01*
X139408373Y-83596402D01*
X139408373Y-83278902D01*
X139082046Y-83278902D01*
X139010390Y-83278740D01*
X138898352Y-83277138D01*
X138819727Y-83273111D01*
X138766583Y-83265796D01*
X138730990Y-83254328D01*
X138705015Y-83237844D01*
X138697696Y-83231448D01*
X138660717Y-83169221D01*
X138659443Y-83096224D01*
X138694678Y-83028686D01*
X138694802Y-83028548D01*
X138714230Y-83011218D01*
X138740936Y-82999053D01*
X138782535Y-82991155D01*
X138846643Y-82986626D01*
X138940873Y-82984567D01*
X139072841Y-82984080D01*
X139410636Y-82984080D01*
X139403835Y-82853678D01*
X139397033Y-82723277D01*
X138910717Y-82717143D01*
X138860461Y-82716484D01*
X138696493Y-82713512D01*
X138571298Y-82708722D01*
X138479664Y-82700696D01*
X138416378Y-82688012D01*
X138376229Y-82669251D01*
X138354005Y-82642992D01*
X138344492Y-82607814D01*
X138342480Y-82562298D01*
X138342492Y-82557546D01*
X138344810Y-82517305D01*
X138354448Y-82485579D01*
X138376160Y-82461358D01*
X138414700Y-82443633D01*
X138474824Y-82431395D01*
X138561285Y-82423634D01*
X138678838Y-82419340D01*
X138832237Y-82417503D01*
X139026237Y-82417116D01*
X139609188Y-82417116D01*
X139656191Y-82476871D01*
G37*
X148762646Y-82417275D02*
X148623210Y-82418023D01*
X148517963Y-82419763D01*
X148441324Y-82422900D01*
X148387710Y-82427836D01*
X148351537Y-82434976D01*
X148327221Y-82444724D01*
X148309181Y-82457484D01*
X148302649Y-82463356D01*
X148262922Y-82525750D01*
X148255769Y-82597441D01*
X148281903Y-82661087D01*
X148293987Y-82673950D01*
X148313532Y-82686421D01*
X148345003Y-82696043D01*
X148394236Y-82703282D01*
X148467066Y-82708606D01*
X148569329Y-82712485D01*
X148706862Y-82715387D01*
X148832603Y-82717152D01*
X149330248Y-82723277D01*
X149337049Y-82853678D01*
X149343850Y-82984080D01*
X149006055Y-82984080D01*
X148859406Y-82985345D01*
X148752044Y-82990637D01*
X148677937Y-83002201D01*
X148631049Y-83022281D01*
X148605347Y-83053121D01*
X148594796Y-83096967D01*
X148593194Y-83137660D01*
X148598173Y-83187591D01*
X148616964Y-83224383D01*
X148655347Y-83249958D01*
X148719100Y-83266239D01*
X148814004Y-83275149D01*
X148945838Y-83278610D01*
X149017794Y-83278902D01*
X149341587Y-83278902D01*
X149341587Y-83596402D01*
X148842658Y-83596402D01*
X148679113Y-83596629D01*
X148554817Y-83597652D01*
X148463666Y-83599979D01*
X148399552Y-83604118D01*
X148356370Y-83610580D01*
X148328013Y-83619871D01*
X148308375Y-83632502D01*
X148298373Y-83641759D01*
X148264062Y-83695786D01*
X148253015Y-83743812D01*
X148268789Y-83802474D01*
X148298373Y-83845866D01*
X148314156Y-83859526D01*
X148334531Y-83870133D01*
X148364978Y-83878071D01*
X148410977Y-83883726D01*
X148478010Y-83887482D01*
X148571558Y-83889723D01*
X148697100Y-83890834D01*
X148860118Y-83891199D01*
X148944712Y-83891223D01*
X149125868Y-83891063D01*
X149267148Y-83890325D01*
X149374032Y-83888627D01*
X149452002Y-83885582D01*
X149506539Y-83880806D01*
X149543122Y-83873915D01*
X149567233Y-83864524D01*
X149584353Y-83852248D01*
X149591051Y-83845866D01*
X149604308Y-83830605D01*
X149614699Y-83810916D01*
X149622571Y-83781524D01*
X149628273Y-83737153D01*
X149632152Y-83672526D01*
X149634557Y-83582367D01*
X149635836Y-83461401D01*
X149636335Y-83304351D01*
X149636408Y-83158123D01*
X149636341Y-82970857D01*
X149635870Y-82823651D01*
X149634593Y-82711205D01*
X149632109Y-82628222D01*
X149628016Y-82569403D01*
X149621911Y-82529450D01*
X149613392Y-82503064D01*
X149602058Y-82484948D01*
X149587505Y-82469803D01*
X149583920Y-82466426D01*
X149566521Y-82451478D01*
X149546305Y-82439903D01*
X149517664Y-82431268D01*
X149474989Y-82425145D01*
X149412675Y-82421102D01*
X149325112Y-82418709D01*
X149206693Y-82417534D01*
X149051811Y-82417148D01*
X148941857Y-82417116D01*
X148762646Y-82417275D01*
G36*
X149051811Y-82417148D02*
G01*
X149206693Y-82417534D01*
X149325112Y-82418709D01*
X149412675Y-82421102D01*
X149474989Y-82425145D01*
X149517664Y-82431268D01*
X149546305Y-82439903D01*
X149566521Y-82451478D01*
X149583920Y-82466426D01*
X149587505Y-82469803D01*
X149602058Y-82484948D01*
X149613392Y-82503064D01*
X149621911Y-82529450D01*
X149628016Y-82569403D01*
X149632109Y-82628222D01*
X149634593Y-82711205D01*
X149635870Y-82823651D01*
X149636341Y-82970857D01*
X149636408Y-83158123D01*
X149636335Y-83304351D01*
X149635836Y-83461401D01*
X149634557Y-83582367D01*
X149632152Y-83672526D01*
X149628273Y-83737153D01*
X149622571Y-83781524D01*
X149614699Y-83810916D01*
X149604308Y-83830605D01*
X149591051Y-83845866D01*
X149584353Y-83852248D01*
X149567233Y-83864524D01*
X149543122Y-83873915D01*
X149506539Y-83880806D01*
X149452002Y-83885582D01*
X149374032Y-83888627D01*
X149267148Y-83890325D01*
X149125868Y-83891063D01*
X148944712Y-83891223D01*
X148860118Y-83891199D01*
X148697100Y-83890834D01*
X148571558Y-83889723D01*
X148478010Y-83887482D01*
X148410977Y-83883726D01*
X148364978Y-83878071D01*
X148334531Y-83870133D01*
X148314156Y-83859526D01*
X148298373Y-83845866D01*
X148268789Y-83802474D01*
X148253015Y-83743812D01*
X148264062Y-83695786D01*
X148298373Y-83641759D01*
X148308375Y-83632502D01*
X148328013Y-83619871D01*
X148356370Y-83610580D01*
X148399552Y-83604118D01*
X148463666Y-83599979D01*
X148554817Y-83597652D01*
X148679113Y-83596629D01*
X148842658Y-83596402D01*
X149341587Y-83596402D01*
X149341587Y-83278902D01*
X149017794Y-83278902D01*
X148945838Y-83278610D01*
X148814004Y-83275149D01*
X148719100Y-83266239D01*
X148655347Y-83249958D01*
X148616964Y-83224383D01*
X148598173Y-83187591D01*
X148593194Y-83137660D01*
X148594796Y-83096967D01*
X148605347Y-83053121D01*
X148631049Y-83022281D01*
X148677937Y-83002201D01*
X148752044Y-82990637D01*
X148859406Y-82985345D01*
X149006055Y-82984080D01*
X149343850Y-82984080D01*
X149337049Y-82853678D01*
X149330248Y-82723277D01*
X148832603Y-82717152D01*
X148706862Y-82715387D01*
X148569329Y-82712485D01*
X148467066Y-82708606D01*
X148394236Y-82703282D01*
X148345003Y-82696043D01*
X148313532Y-82686421D01*
X148293987Y-82673950D01*
X148281903Y-82661087D01*
X148255769Y-82597441D01*
X148262922Y-82525750D01*
X148302649Y-82463356D01*
X148309181Y-82457484D01*
X148327221Y-82444724D01*
X148351537Y-82434976D01*
X148387710Y-82427836D01*
X148441324Y-82422900D01*
X148517963Y-82419763D01*
X148623210Y-82418023D01*
X148762646Y-82417275D01*
X148941857Y-82417116D01*
X149051811Y-82417148D01*
G37*
X131772215Y-82421068D02*
X131732861Y-82435132D01*
X131731342Y-82435820D01*
X131677900Y-82476604D01*
X131648455Y-82518555D01*
X131642693Y-82538224D01*
X131642978Y-82564360D01*
X131651085Y-82601591D01*
X131668792Y-82654551D01*
X131697876Y-82727868D01*
X131740113Y-82826174D01*
X131797280Y-82954099D01*
X131871154Y-83116275D01*
X131911816Y-83204916D01*
X131985241Y-83363158D01*
X132054169Y-83508680D01*
X132115968Y-83636160D01*
X132168009Y-83740279D01*
X132207659Y-83815716D01*
X132232289Y-83857151D01*
X132237163Y-83862875D01*
X132299522Y-83888125D01*
X132369960Y-83884743D01*
X132426452Y-83854033D01*
X132428754Y-83851535D01*
X132451226Y-83817515D01*
X132488922Y-83751251D01*
X132537194Y-83661272D01*
X132591392Y-83556109D01*
X132610870Y-83517356D01*
X132757898Y-83222863D01*
X132918157Y-83542772D01*
X132975359Y-83653306D01*
X133028429Y-83749167D01*
X133073031Y-83823016D01*
X133104830Y-83867516D01*
X133115607Y-83876952D01*
X133199374Y-83889732D01*
X133268496Y-83862875D01*
X133288829Y-83834172D01*
X133324014Y-83770381D01*
X133371181Y-83677779D01*
X133427460Y-83562643D01*
X133489981Y-83431249D01*
X133555873Y-83289875D01*
X133622266Y-83144797D01*
X133686290Y-83002293D01*
X133745074Y-82868640D01*
X133795748Y-82750114D01*
X133835442Y-82652992D01*
X133861285Y-82583552D01*
X133870408Y-82548070D01*
X133870315Y-82546785D01*
X133848119Y-82502137D01*
X133803754Y-82456663D01*
X133801141Y-82454685D01*
X133746614Y-82423863D01*
X133696179Y-82424161D01*
X133677276Y-82429972D01*
X133654241Y-82442530D01*
X133629780Y-82467234D01*
X133600958Y-82509207D01*
X133564840Y-82573575D01*
X133518492Y-82665463D01*
X133458981Y-82789994D01*
X133405313Y-82904946D01*
X133343568Y-83038195D01*
X133288240Y-83158023D01*
X133242203Y-83258171D01*
X133208330Y-83332378D01*
X133189498Y-83374384D01*
X133186751Y-83380955D01*
X133174398Y-83370213D01*
X133146007Y-83325236D01*
X133105355Y-83252588D01*
X133056221Y-83158834D01*
X133036669Y-83120152D01*
X132970435Y-82989535D01*
X132919356Y-82894411D01*
X132879240Y-82829252D01*
X132845896Y-82788525D01*
X132815131Y-82766701D01*
X132782755Y-82758249D01*
X132761656Y-82757294D01*
X132724438Y-82760592D01*
X132691824Y-82774232D01*
X132659418Y-82803834D01*
X132622824Y-82855016D01*
X132577646Y-82933398D01*
X132519488Y-83044600D01*
X132487400Y-83107858D01*
X132435352Y-83208675D01*
X132389956Y-83292280D01*
X132355220Y-83351620D01*
X132335147Y-83379639D01*
X132332417Y-83380806D01*
X132319454Y-83358754D01*
X132290431Y-83301493D01*
X132248255Y-83215016D01*
X132195832Y-83105316D01*
X132136069Y-82978386D01*
X132106671Y-82915339D01*
X132030192Y-82752630D01*
X131968608Y-82627429D01*
X131918722Y-82535651D01*
X131877337Y-82473210D01*
X131841256Y-82436023D01*
X131807281Y-82420004D01*
X131772215Y-82421068D01*
G36*
X131841256Y-82436023D02*
G01*
X131877337Y-82473210D01*
X131918722Y-82535651D01*
X131968608Y-82627429D01*
X132030192Y-82752630D01*
X132106671Y-82915339D01*
X132136069Y-82978386D01*
X132195832Y-83105316D01*
X132248255Y-83215016D01*
X132290431Y-83301493D01*
X132319454Y-83358754D01*
X132332417Y-83380806D01*
X132335147Y-83379639D01*
X132355220Y-83351620D01*
X132389956Y-83292280D01*
X132435352Y-83208675D01*
X132487400Y-83107858D01*
X132519488Y-83044600D01*
X132577646Y-82933398D01*
X132622824Y-82855016D01*
X132659418Y-82803834D01*
X132691824Y-82774232D01*
X132724438Y-82760592D01*
X132761656Y-82757294D01*
X132782755Y-82758249D01*
X132815131Y-82766701D01*
X132845896Y-82788525D01*
X132879240Y-82829252D01*
X132919356Y-82894411D01*
X132970435Y-82989535D01*
X133036669Y-83120152D01*
X133056221Y-83158834D01*
X133105355Y-83252588D01*
X133146007Y-83325236D01*
X133174398Y-83370213D01*
X133186751Y-83380955D01*
X133189498Y-83374384D01*
X133208330Y-83332378D01*
X133242203Y-83258171D01*
X133288240Y-83158023D01*
X133343568Y-83038195D01*
X133405313Y-82904946D01*
X133458981Y-82789994D01*
X133518492Y-82665463D01*
X133564840Y-82573575D01*
X133600958Y-82509207D01*
X133629780Y-82467234D01*
X133654241Y-82442530D01*
X133677276Y-82429972D01*
X133696179Y-82424161D01*
X133746614Y-82423863D01*
X133801141Y-82454685D01*
X133803754Y-82456663D01*
X133848119Y-82502137D01*
X133870315Y-82546785D01*
X133870408Y-82548070D01*
X133861285Y-82583552D01*
X133835442Y-82652992D01*
X133795748Y-82750114D01*
X133745074Y-82868640D01*
X133686290Y-83002293D01*
X133622266Y-83144797D01*
X133555873Y-83289875D01*
X133489981Y-83431249D01*
X133427460Y-83562643D01*
X133371181Y-83677779D01*
X133324014Y-83770381D01*
X133288829Y-83834172D01*
X133268496Y-83862875D01*
X133199374Y-83889732D01*
X133115607Y-83876952D01*
X133104830Y-83867516D01*
X133073031Y-83823016D01*
X133028429Y-83749167D01*
X132975359Y-83653306D01*
X132918157Y-83542772D01*
X132757898Y-83222863D01*
X132610870Y-83517356D01*
X132591392Y-83556109D01*
X132537194Y-83661272D01*
X132488922Y-83751251D01*
X132451226Y-83817515D01*
X132428754Y-83851535D01*
X132426452Y-83854033D01*
X132369960Y-83884743D01*
X132299522Y-83888125D01*
X132237163Y-83862875D01*
X132232289Y-83857151D01*
X132207659Y-83815716D01*
X132168009Y-83740279D01*
X132115968Y-83636160D01*
X132054169Y-83508680D01*
X131985241Y-83363158D01*
X131911816Y-83204916D01*
X131871154Y-83116275D01*
X131797280Y-82954099D01*
X131740113Y-82826174D01*
X131697876Y-82727868D01*
X131668792Y-82654551D01*
X131651085Y-82601591D01*
X131642978Y-82564360D01*
X131642693Y-82538224D01*
X131648455Y-82518555D01*
X131677900Y-82476604D01*
X131731342Y-82435820D01*
X131732861Y-82435132D01*
X131772215Y-82421068D01*
X131807281Y-82420004D01*
X131841256Y-82436023D01*
G37*
X146711346Y-82419696D02*
X146561048Y-82430203D01*
X146421263Y-82446614D01*
X146300117Y-82468310D01*
X146205734Y-82494673D01*
X146146241Y-82525087D01*
X146137109Y-82534040D01*
X146105355Y-82603511D01*
X146114984Y-82674831D01*
X146164237Y-82735850D01*
X146166587Y-82737598D01*
X146195557Y-82756399D01*
X146225799Y-82766285D01*
X146267981Y-82767486D01*
X146332772Y-82760230D01*
X146430841Y-82744747D01*
X146438730Y-82743444D01*
X146584857Y-82725492D01*
X146742514Y-82716636D01*
X146900636Y-82716550D01*
X147048160Y-82724908D01*
X147174020Y-82741382D01*
X147267152Y-82765646D01*
X147273271Y-82768085D01*
X147340835Y-82805940D01*
X147364573Y-82844250D01*
X147345990Y-82881927D01*
X147286591Y-82917883D01*
X147187881Y-82951029D01*
X147051365Y-82980277D01*
X146960337Y-82994359D01*
X146771118Y-83021446D01*
X146620625Y-83046207D01*
X146502446Y-83070786D01*
X146410171Y-83097328D01*
X146337390Y-83127976D01*
X146277690Y-83164875D01*
X146224662Y-83210168D01*
X146182049Y-83254646D01*
X146131494Y-83316618D01*
X146106615Y-83369907D01*
X146098834Y-83435562D01*
X146098551Y-83459606D01*
X146104395Y-83539394D01*
X146127751Y-83598753D01*
X146168173Y-83651439D01*
X146250324Y-83731977D01*
X146341932Y-83793397D01*
X146449804Y-83837702D01*
X146580745Y-83866895D01*
X146741564Y-83882979D01*
X146939066Y-83887956D01*
X146971676Y-83887872D01*
X147103381Y-83885142D01*
X147233995Y-83878939D01*
X147349281Y-83870153D01*
X147435000Y-83859673D01*
X147441933Y-83858470D01*
X147527159Y-83838281D01*
X147599447Y-83812778D01*
X147640370Y-83789462D01*
X147678454Y-83727952D01*
X147681105Y-83656325D01*
X147648275Y-83592494D01*
X147640930Y-83585276D01*
X147610568Y-83563830D01*
X147572598Y-83554590D01*
X147513832Y-83556163D01*
X147442492Y-83564336D01*
X147362777Y-83571637D01*
X147251029Y-83577797D01*
X147120572Y-83582267D01*
X146984726Y-83584499D01*
X146948998Y-83584646D01*
X146812646Y-83584096D01*
X146712856Y-83581449D01*
X146640848Y-83575786D01*
X146587840Y-83566189D01*
X146545053Y-83551740D01*
X146519340Y-83539705D01*
X146462837Y-83506288D01*
X146426813Y-83476024D01*
X146421548Y-83467445D01*
X146432655Y-83432019D01*
X146485457Y-83397724D01*
X146576296Y-83366117D01*
X146701512Y-83338754D01*
X146738404Y-83332659D01*
X146931098Y-83302393D01*
X147084884Y-83277096D01*
X147205697Y-83254929D01*
X147299475Y-83234053D01*
X147372151Y-83212630D01*
X147429663Y-83188822D01*
X147477945Y-83160791D01*
X147522933Y-83126698D01*
X147570563Y-83084705D01*
X147586591Y-83069982D01*
X147642786Y-83015037D01*
X147672532Y-82971504D01*
X147684169Y-82921688D01*
X147686051Y-82858912D01*
X147665331Y-82735808D01*
X147603409Y-82631214D01*
X147500639Y-82545468D01*
X147357378Y-82478907D01*
X147255158Y-82449052D01*
X147144063Y-82429770D01*
X147010979Y-82418862D01*
X146864032Y-82415710D01*
X146711346Y-82419696D01*
G36*
X147010979Y-82418862D02*
G01*
X147144063Y-82429770D01*
X147255158Y-82449052D01*
X147357378Y-82478907D01*
X147500639Y-82545468D01*
X147603409Y-82631214D01*
X147665331Y-82735808D01*
X147686051Y-82858912D01*
X147684169Y-82921688D01*
X147672532Y-82971504D01*
X147642786Y-83015037D01*
X147586591Y-83069982D01*
X147570563Y-83084705D01*
X147522933Y-83126698D01*
X147477945Y-83160791D01*
X147429663Y-83188822D01*
X147372151Y-83212630D01*
X147299475Y-83234053D01*
X147205697Y-83254929D01*
X147084884Y-83277096D01*
X146931098Y-83302393D01*
X146738404Y-83332659D01*
X146701512Y-83338754D01*
X146576296Y-83366117D01*
X146485457Y-83397724D01*
X146432655Y-83432019D01*
X146421548Y-83467445D01*
X146426813Y-83476024D01*
X146462837Y-83506288D01*
X146519340Y-83539705D01*
X146545053Y-83551740D01*
X146587840Y-83566189D01*
X146640848Y-83575786D01*
X146712856Y-83581449D01*
X146812646Y-83584096D01*
X146948998Y-83584646D01*
X146984726Y-83584499D01*
X147120572Y-83582267D01*
X147251029Y-83577797D01*
X147362777Y-83571637D01*
X147442492Y-83564336D01*
X147513832Y-83556163D01*
X147572598Y-83554590D01*
X147610568Y-83563830D01*
X147640930Y-83585276D01*
X147648275Y-83592494D01*
X147681105Y-83656325D01*
X147678454Y-83727952D01*
X147640370Y-83789462D01*
X147599447Y-83812778D01*
X147527159Y-83838281D01*
X147441933Y-83858470D01*
X147435000Y-83859673D01*
X147349281Y-83870153D01*
X147233995Y-83878939D01*
X147103381Y-83885142D01*
X146971676Y-83887872D01*
X146939066Y-83887956D01*
X146741564Y-83882979D01*
X146580745Y-83866895D01*
X146449804Y-83837702D01*
X146341932Y-83793397D01*
X146250324Y-83731977D01*
X146168173Y-83651439D01*
X146127751Y-83598753D01*
X146104395Y-83539394D01*
X146098551Y-83459606D01*
X146098834Y-83435562D01*
X146106615Y-83369907D01*
X146131494Y-83316618D01*
X146182049Y-83254646D01*
X146224662Y-83210168D01*
X146277690Y-83164875D01*
X146337390Y-83127976D01*
X146410171Y-83097328D01*
X146502446Y-83070786D01*
X146620625Y-83046207D01*
X146771118Y-83021446D01*
X146960337Y-82994359D01*
X147051365Y-82980277D01*
X147187881Y-82951029D01*
X147286591Y-82917883D01*
X147345990Y-82881927D01*
X147364573Y-82844250D01*
X147340835Y-82805940D01*
X147273271Y-82768085D01*
X147267152Y-82765646D01*
X147174020Y-82741382D01*
X147048160Y-82724908D01*
X146900636Y-82716550D01*
X146742514Y-82716636D01*
X146584857Y-82725492D01*
X146438730Y-82743444D01*
X146430841Y-82744747D01*
X146332772Y-82760230D01*
X146267981Y-82767486D01*
X146225799Y-82766285D01*
X146195557Y-82756399D01*
X146166587Y-82737598D01*
X146164237Y-82735850D01*
X146114984Y-82674831D01*
X146105355Y-82603511D01*
X146137109Y-82534040D01*
X146146241Y-82525087D01*
X146205734Y-82494673D01*
X146300117Y-82468310D01*
X146421263Y-82446614D01*
X146561048Y-82430203D01*
X146711346Y-82419696D01*
X146864032Y-82415710D01*
X147010979Y-82418862D01*
G37*
X138624807Y-71840777D02*
X138330294Y-71873019D01*
X138044961Y-71930729D01*
X137757200Y-72016917D01*
X137455404Y-72134593D01*
X137127966Y-72286767D01*
X137068999Y-72316243D01*
X136933676Y-72382910D01*
X136806049Y-72442939D01*
X136698713Y-72490599D01*
X136624264Y-72520155D01*
X136612827Y-72523876D01*
X136503226Y-72556714D01*
X136993845Y-73270453D01*
X137113794Y-73444895D01*
X137223461Y-73604270D01*
X137319117Y-73743168D01*
X137397031Y-73856178D01*
X137453475Y-73937890D01*
X137484719Y-73982891D01*
X137489795Y-73990018D01*
X137510412Y-73975117D01*
X137561161Y-73930320D01*
X137632966Y-73863765D01*
X137672594Y-73826147D01*
X137897118Y-73647568D01*
X138149274Y-73511868D01*
X138366560Y-73437537D01*
X138496993Y-73414193D01*
X138660307Y-73399967D01*
X138837293Y-73395124D01*
X139008744Y-73399926D01*
X139155452Y-73414638D01*
X139213993Y-73425905D01*
X139477853Y-73516685D01*
X139715622Y-73655296D01*
X139927124Y-73841485D01*
X140112184Y-74074999D01*
X140270625Y-74355584D01*
X140402271Y-74682987D01*
X140506946Y-75056955D01*
X140569155Y-75377097D01*
X140585386Y-75518426D01*
X140596444Y-75701004D01*
X140602437Y-75911709D01*
X140603473Y-76137422D01*
X140599657Y-76365022D01*
X140591097Y-76581389D01*
X140577899Y-76773402D01*
X140560170Y-76927943D01*
X140556333Y-76951786D01*
X140471749Y-77335860D01*
X140356505Y-77675783D01*
X140209897Y-77973078D01*
X140031226Y-78229268D01*
X139904400Y-78367775D01*
X139676475Y-78555828D01*
X139426512Y-78695220D01*
X139158730Y-78785195D01*
X138877344Y-78824994D01*
X138586571Y-78813857D01*
X138290627Y-78751026D01*
X138115660Y-78689547D01*
X137873534Y-78566436D01*
X137623980Y-78389837D01*
X137484191Y-78270412D01*
X137405699Y-78201291D01*
X137344030Y-78150579D01*
X137308928Y-78126144D01*
X137304570Y-78125398D01*
X137288903Y-78150367D01*
X137248308Y-78216348D01*
X137186243Y-78317685D01*
X137106167Y-78448721D01*
X137011538Y-78603800D01*
X136905814Y-78777265D01*
X136846967Y-78873896D01*
X136397474Y-79612201D01*
X136958683Y-79889549D01*
X137161596Y-79989172D01*
X137325973Y-80067729D01*
X137461861Y-80129122D01*
X137579309Y-80177253D01*
X137688364Y-80216023D01*
X137799074Y-80249333D01*
X137921487Y-80281086D01*
X138038818Y-80308969D01*
X138143105Y-80330546D01*
X138252168Y-80346851D01*
X138376927Y-80358791D01*
X138528297Y-80367270D01*
X138717199Y-80373192D01*
X138844517Y-80375749D01*
X139026177Y-80377494D01*
X139200367Y-80376614D01*
X139355557Y-80373360D01*
X139480223Y-80367984D01*
X139562834Y-80360735D01*
X139567730Y-80360012D01*
X139996709Y-80267205D01*
X140399551Y-80126449D01*
X140776112Y-79937839D01*
X141126252Y-79701466D01*
X141449828Y-79417424D01*
X141746700Y-79085805D01*
X141961701Y-78791075D01*
X142190589Y-78405298D01*
X142375611Y-77997895D01*
X142517662Y-77565600D01*
X142617636Y-77105146D01*
X142676428Y-76613267D01*
X142694951Y-76113799D01*
X142679717Y-75630634D01*
X142631844Y-75184842D01*
X142549811Y-74768905D01*
X142432097Y-74375304D01*
X142277181Y-73996518D01*
X142258683Y-73957275D01*
X142054894Y-73590440D01*
X141804598Y-73241360D01*
X141514885Y-72917260D01*
X141192846Y-72625366D01*
X140845574Y-72372904D01*
X140521987Y-72187714D01*
X140195096Y-72042670D01*
X139867511Y-71937603D01*
X139526552Y-71869653D01*
X139159535Y-71835960D01*
X138940108Y-71830992D01*
X138624807Y-71840777D01*
G36*
X139159535Y-71835960D02*
G01*
X139526552Y-71869653D01*
X139867511Y-71937603D01*
X140195096Y-72042670D01*
X140521987Y-72187714D01*
X140845574Y-72372904D01*
X141192846Y-72625366D01*
X141514885Y-72917260D01*
X141804598Y-73241360D01*
X142054894Y-73590440D01*
X142258683Y-73957275D01*
X142277181Y-73996518D01*
X142432097Y-74375304D01*
X142549811Y-74768905D01*
X142631844Y-75184842D01*
X142679717Y-75630634D01*
X142694951Y-76113799D01*
X142676428Y-76613267D01*
X142617636Y-77105146D01*
X142517662Y-77565600D01*
X142375611Y-77997895D01*
X142190589Y-78405298D01*
X141961701Y-78791075D01*
X141746700Y-79085805D01*
X141449828Y-79417424D01*
X141126252Y-79701466D01*
X140776112Y-79937839D01*
X140399551Y-80126449D01*
X139996709Y-80267205D01*
X139567730Y-80360012D01*
X139562834Y-80360735D01*
X139480223Y-80367984D01*
X139355557Y-80373360D01*
X139200367Y-80376614D01*
X139026177Y-80377494D01*
X138844517Y-80375749D01*
X138717199Y-80373192D01*
X138528297Y-80367270D01*
X138376927Y-80358791D01*
X138252168Y-80346851D01*
X138143105Y-80330546D01*
X138038818Y-80308969D01*
X137921487Y-80281086D01*
X137799074Y-80249333D01*
X137688364Y-80216023D01*
X137579309Y-80177253D01*
X137461861Y-80129122D01*
X137325973Y-80067729D01*
X137161596Y-79989172D01*
X136958683Y-79889549D01*
X136397474Y-79612201D01*
X136846967Y-78873896D01*
X136905814Y-78777265D01*
X137011538Y-78603800D01*
X137106167Y-78448721D01*
X137186243Y-78317685D01*
X137248308Y-78216348D01*
X137288903Y-78150367D01*
X137304570Y-78125398D01*
X137308928Y-78126144D01*
X137344030Y-78150579D01*
X137405699Y-78201291D01*
X137484191Y-78270412D01*
X137623980Y-78389837D01*
X137873534Y-78566436D01*
X138115660Y-78689547D01*
X138290627Y-78751026D01*
X138586571Y-78813857D01*
X138877344Y-78824994D01*
X139158730Y-78785195D01*
X139426512Y-78695220D01*
X139676475Y-78555828D01*
X139904400Y-78367775D01*
X140031226Y-78229268D01*
X140209897Y-77973078D01*
X140356505Y-77675783D01*
X140471749Y-77335860D01*
X140556333Y-76951786D01*
X140560170Y-76927943D01*
X140577899Y-76773402D01*
X140591097Y-76581389D01*
X140599657Y-76365022D01*
X140603473Y-76137422D01*
X140602437Y-75911709D01*
X140596444Y-75701004D01*
X140585386Y-75518426D01*
X140569155Y-75377097D01*
X140506946Y-75056955D01*
X140402271Y-74682987D01*
X140270625Y-74355584D01*
X140112184Y-74074999D01*
X139927124Y-73841485D01*
X139715622Y-73655296D01*
X139477853Y-73516685D01*
X139213993Y-73425905D01*
X139155452Y-73414638D01*
X139008744Y-73399926D01*
X138837293Y-73395124D01*
X138660307Y-73399967D01*
X138496993Y-73414193D01*
X138366560Y-73437537D01*
X138149274Y-73511868D01*
X137897118Y-73647568D01*
X137672594Y-73826147D01*
X137632966Y-73863765D01*
X137561161Y-73930320D01*
X137510412Y-73975117D01*
X137489795Y-73990018D01*
X137484719Y-73982891D01*
X137453475Y-73937890D01*
X137397031Y-73856178D01*
X137319117Y-73743168D01*
X137223461Y-73604270D01*
X137113794Y-73444895D01*
X136993845Y-73270453D01*
X136503226Y-72556714D01*
X136612827Y-72523876D01*
X136624264Y-72520155D01*
X136698713Y-72490599D01*
X136806049Y-72442939D01*
X136933676Y-72382910D01*
X137068999Y-72316243D01*
X137127966Y-72286767D01*
X137455404Y-72134593D01*
X137757200Y-72016917D01*
X138044961Y-71930729D01*
X138330294Y-71873019D01*
X138624807Y-71840777D01*
X138940108Y-71830992D01*
X139159535Y-71835960D01*
G37*
X125889033Y-71435618D02*
X125656746Y-71436571D01*
X125577796Y-71437052D01*
X124492151Y-71444193D01*
X124478495Y-75609247D01*
X124476692Y-76174041D01*
X124475092Y-76686864D01*
X124473594Y-77150371D01*
X124472094Y-77567214D01*
X124470491Y-77940045D01*
X124468680Y-78271519D01*
X124466560Y-78564286D01*
X124464028Y-78821002D01*
X124460980Y-79044318D01*
X124457315Y-79236887D01*
X124452929Y-79401363D01*
X124447720Y-79540398D01*
X124441584Y-79656644D01*
X124434420Y-79752756D01*
X124426125Y-79831386D01*
X124416595Y-79895187D01*
X124405728Y-79946811D01*
X124393421Y-79988912D01*
X124379572Y-80024143D01*
X124364077Y-80055156D01*
X124346835Y-80084604D01*
X124327742Y-80115141D01*
X124306695Y-80149418D01*
X124302381Y-80156720D01*
X124230004Y-80280221D01*
X125276024Y-80273068D01*
X126322044Y-80265914D01*
X126335699Y-80036142D01*
X126343135Y-79925873D01*
X126350883Y-79862122D01*
X126361397Y-79836827D01*
X126377128Y-79841922D01*
X126390323Y-79856498D01*
X126447803Y-79909591D01*
X126541487Y-79977837D01*
X126658175Y-80053080D01*
X126784669Y-80127167D01*
X126907769Y-80191943D01*
X127002287Y-80234561D01*
X127223726Y-80304595D01*
X127477793Y-80354204D01*
X127745734Y-80381494D01*
X128008789Y-80384569D01*
X128248205Y-80361532D01*
X128252147Y-80360873D01*
X128579747Y-80278669D01*
X128886413Y-80147700D01*
X129169186Y-79970780D01*
X129425108Y-79750726D01*
X129651222Y-79490351D01*
X129844570Y-79192472D01*
X130002194Y-78859904D01*
X130088016Y-78613548D01*
X130144611Y-78407445D01*
X130186582Y-78207867D01*
X130215211Y-78002690D01*
X130231782Y-77779791D01*
X130237577Y-77527045D01*
X130235011Y-77320662D01*
X128219675Y-77320662D01*
X128210138Y-77666732D01*
X128180054Y-77964467D01*
X128128497Y-78216510D01*
X128054542Y-78425502D01*
X127957262Y-78594086D01*
X127835734Y-78724906D01*
X127695454Y-78817385D01*
X127622460Y-78851909D01*
X127559153Y-78872607D01*
X127488573Y-78882077D01*
X127393758Y-78882915D01*
X127291613Y-78879228D01*
X127090739Y-78861510D01*
X126931866Y-78826813D01*
X126881936Y-78809433D01*
X126767925Y-78758102D01*
X126647677Y-78693643D01*
X126595162Y-78661376D01*
X126458603Y-78571805D01*
X126458603Y-75732706D01*
X126608818Y-75642665D01*
X126818308Y-75540923D01*
X127032342Y-75480751D01*
X127243091Y-75461796D01*
X127442727Y-75483701D01*
X127623423Y-75546113D01*
X127777351Y-75648676D01*
X127827019Y-75697906D01*
X127946738Y-75859211D01*
X128043636Y-76054471D01*
X128118523Y-76287031D01*
X128172207Y-76560239D01*
X128205500Y-76877441D01*
X128219211Y-77241984D01*
X128219675Y-77320662D01*
X130235011Y-77320662D01*
X130233942Y-77234756D01*
X130210918Y-76785158D01*
X130164622Y-76379628D01*
X130093836Y-76012257D01*
X129997339Y-75677137D01*
X129873913Y-75368363D01*
X129829869Y-75276822D01*
X129652460Y-74978296D01*
X129438070Y-74713007D01*
X129191741Y-74485237D01*
X128918513Y-74299268D01*
X128623426Y-74159382D01*
X128446541Y-74101678D01*
X128272822Y-74067422D01*
X128063795Y-74047041D01*
X127836986Y-74040525D01*
X127609916Y-74047866D01*
X127400108Y-74069055D01*
X127231648Y-74102295D01*
X127031143Y-74167482D01*
X126836805Y-74251307D01*
X126666776Y-74345280D01*
X126576279Y-74409058D01*
X126513856Y-74456484D01*
X126470147Y-74485361D01*
X126460204Y-74489462D01*
X126457121Y-74463041D01*
X126454247Y-74387339D01*
X126451645Y-74267698D01*
X126449379Y-74109462D01*
X126447512Y-73917973D01*
X126446109Y-73698574D01*
X126445233Y-73456607D01*
X126444947Y-73210147D01*
X126445106Y-72894476D01*
X126445892Y-72628337D01*
X126447762Y-72406641D01*
X126451175Y-72224296D01*
X126456591Y-72076212D01*
X126464469Y-71957299D01*
X126475267Y-71862465D01*
X126489445Y-71786620D01*
X126507461Y-71724674D01*
X126529775Y-71671536D01*
X126556846Y-71622115D01*
X126589133Y-71571321D01*
X126593287Y-71565031D01*
X126634929Y-71499245D01*
X126660071Y-71454008D01*
X126663441Y-71444466D01*
X126637097Y-71441455D01*
X126561931Y-71439006D01*
X126443743Y-71437158D01*
X126288331Y-71435951D01*
X126101494Y-71435424D01*
X125889033Y-71435618D01*
G36*
X130237577Y-77527045D02*
G01*
X130231782Y-77779791D01*
X130215211Y-78002690D01*
X130186582Y-78207867D01*
X130144611Y-78407445D01*
X130088016Y-78613548D01*
X130002194Y-78859904D01*
X129844570Y-79192472D01*
X129651222Y-79490351D01*
X129425108Y-79750726D01*
X129169186Y-79970780D01*
X128886413Y-80147700D01*
X128579747Y-80278669D01*
X128252147Y-80360873D01*
X128248205Y-80361532D01*
X128008789Y-80384569D01*
X127745734Y-80381494D01*
X127477793Y-80354204D01*
X127223726Y-80304595D01*
X127002287Y-80234561D01*
X126907769Y-80191943D01*
X126784669Y-80127167D01*
X126658175Y-80053080D01*
X126541487Y-79977837D01*
X126447803Y-79909591D01*
X126390323Y-79856498D01*
X126377128Y-79841922D01*
X126361397Y-79836827D01*
X126350883Y-79862122D01*
X126343135Y-79925873D01*
X126335699Y-80036142D01*
X126322044Y-80265914D01*
X125276024Y-80273068D01*
X124230004Y-80280221D01*
X124302381Y-80156720D01*
X124306695Y-80149418D01*
X124327742Y-80115141D01*
X124346835Y-80084604D01*
X124364077Y-80055156D01*
X124379572Y-80024143D01*
X124393421Y-79988912D01*
X124405728Y-79946811D01*
X124416595Y-79895187D01*
X124426125Y-79831386D01*
X124434420Y-79752756D01*
X124441584Y-79656644D01*
X124447720Y-79540398D01*
X124452929Y-79401363D01*
X124457315Y-79236887D01*
X124460980Y-79044318D01*
X124464028Y-78821002D01*
X124466560Y-78564286D01*
X124468680Y-78271519D01*
X124470491Y-77940045D01*
X124472094Y-77567214D01*
X124473594Y-77150371D01*
X124475092Y-76686864D01*
X124476692Y-76174041D01*
X124478101Y-75732706D01*
X126458603Y-75732706D01*
X126458603Y-78571805D01*
X126595162Y-78661376D01*
X126647677Y-78693643D01*
X126767925Y-78758102D01*
X126881936Y-78809433D01*
X126931866Y-78826813D01*
X127090739Y-78861510D01*
X127291613Y-78879228D01*
X127393758Y-78882915D01*
X127488573Y-78882077D01*
X127559153Y-78872607D01*
X127622460Y-78851909D01*
X127695454Y-78817385D01*
X127835734Y-78724906D01*
X127957262Y-78594086D01*
X128054542Y-78425502D01*
X128128497Y-78216510D01*
X128180054Y-77964467D01*
X128210138Y-77666732D01*
X128219675Y-77320662D01*
X128219211Y-77241984D01*
X128205500Y-76877441D01*
X128172207Y-76560239D01*
X128118523Y-76287031D01*
X128043636Y-76054471D01*
X127946738Y-75859211D01*
X127827019Y-75697906D01*
X127777351Y-75648676D01*
X127623423Y-75546113D01*
X127442727Y-75483701D01*
X127243091Y-75461796D01*
X127032342Y-75480751D01*
X126818308Y-75540923D01*
X126608818Y-75642665D01*
X126458603Y-75732706D01*
X124478101Y-75732706D01*
X124478495Y-75609247D01*
X124492151Y-71444193D01*
X125577796Y-71437052D01*
X125656746Y-71436571D01*
X125889033Y-71435618D01*
X126101494Y-71435424D01*
X126288331Y-71435951D01*
X126443743Y-71437158D01*
X126561931Y-71439006D01*
X126637097Y-71441455D01*
X126663441Y-71444466D01*
X126660071Y-71454008D01*
X126634929Y-71499245D01*
X126593287Y-71565031D01*
X126589133Y-71571321D01*
X126556846Y-71622115D01*
X126529775Y-71671536D01*
X126507461Y-71724674D01*
X126489445Y-71786620D01*
X126475267Y-71862465D01*
X126464469Y-71957299D01*
X126456591Y-72076212D01*
X126451175Y-72224296D01*
X126447762Y-72406641D01*
X126445892Y-72628337D01*
X126445106Y-72894476D01*
X126444947Y-73210147D01*
X126445233Y-73456607D01*
X126446109Y-73698574D01*
X126447512Y-73917973D01*
X126449379Y-74109462D01*
X126451645Y-74267698D01*
X126454247Y-74387339D01*
X126457121Y-74463041D01*
X126460204Y-74489462D01*
X126470147Y-74485361D01*
X126513856Y-74456484D01*
X126576279Y-74409058D01*
X126666776Y-74345280D01*
X126836805Y-74251307D01*
X127031143Y-74167482D01*
X127231648Y-74102295D01*
X127400108Y-74069055D01*
X127609916Y-74047866D01*
X127836986Y-74040525D01*
X128063795Y-74047041D01*
X128272822Y-74067422D01*
X128446541Y-74101678D01*
X128623426Y-74159382D01*
X128918513Y-74299268D01*
X129191741Y-74485237D01*
X129438070Y-74713007D01*
X129652460Y-74978296D01*
X129829869Y-75276822D01*
X129873913Y-75368363D01*
X129997339Y-75677137D01*
X130093836Y-76012257D01*
X130164622Y-76379628D01*
X130210918Y-76785158D01*
X130233942Y-77234756D01*
X130235011Y-77320662D01*
X130237577Y-77527045D01*
G37*
X133199049Y-74036368D02*
X133063728Y-74046611D01*
X132676558Y-74098122D01*
X132333679Y-74180283D01*
X132033420Y-74294222D01*
X131774112Y-74441072D01*
X131554084Y-74621962D01*
X131371666Y-74838022D01*
X131225189Y-75090384D01*
X131118229Y-75363441D01*
X131091079Y-75450541D01*
X131067436Y-75532107D01*
X131047023Y-75612529D01*
X131029561Y-75696199D01*
X131014770Y-75787508D01*
X131002373Y-75890847D01*
X130992089Y-76010609D01*
X130983642Y-76151183D01*
X130976752Y-76316962D01*
X130971139Y-76512336D01*
X130966527Y-76741698D01*
X130962635Y-77009437D01*
X130959185Y-77319947D01*
X130955898Y-77677618D01*
X130953549Y-77958064D01*
X130937742Y-79883548D01*
X130835323Y-80068843D01*
X130786825Y-80158111D01*
X130750734Y-80227448D01*
X130733517Y-80264354D01*
X130732904Y-80266854D01*
X130759220Y-80269715D01*
X130834189Y-80272351D01*
X130951839Y-80274689D01*
X131106200Y-80276653D01*
X131291300Y-80278170D01*
X131501168Y-80279165D01*
X131729833Y-80279565D01*
X131757097Y-80279570D01*
X132781291Y-80279570D01*
X132781291Y-80047419D01*
X132783037Y-79942507D01*
X132787698Y-79862271D01*
X132794404Y-79819251D01*
X132797368Y-79815269D01*
X132824477Y-79831950D01*
X132880269Y-79875731D01*
X132952785Y-79937216D01*
X132954411Y-79938638D01*
X133086743Y-80037160D01*
X133253867Y-80136089D01*
X133436900Y-80225706D01*
X133616957Y-80296293D01*
X133696237Y-80320414D01*
X133854009Y-80351051D01*
X134047603Y-80370602D01*
X134259296Y-80378787D01*
X134471368Y-80375327D01*
X134666096Y-80359945D01*
X134802366Y-80337811D01*
X135136546Y-80239676D01*
X135437397Y-80099819D01*
X135702961Y-79919974D01*
X135931279Y-79701876D01*
X136120394Y-79447261D01*
X136268347Y-79157864D01*
X136332175Y-78982258D01*
X136372177Y-78811576D01*
X136398687Y-78606678D01*
X136410953Y-78386464D01*
X136410550Y-78354420D01*
X134563388Y-78354420D01*
X134548070Y-78518053D01*
X134497065Y-78654042D01*
X134402796Y-78780208D01*
X134366589Y-78817203D01*
X134237880Y-78917221D01*
X134089115Y-78981294D01*
X133910887Y-79012309D01*
X133723202Y-79014593D01*
X133545186Y-78999514D01*
X133408888Y-78970021D01*
X133349694Y-78947869D01*
X133243005Y-78887496D01*
X133129963Y-78802589D01*
X133026825Y-78707295D01*
X132949849Y-78615760D01*
X132929409Y-78582181D01*
X132913519Y-78535157D01*
X132902222Y-78460333D01*
X132894991Y-78350560D01*
X132891300Y-78198692D01*
X132890538Y-78054155D01*
X132891054Y-77885644D01*
X132893140Y-77763799D01*
X132897598Y-77680666D01*
X132905235Y-77628292D01*
X132916854Y-77598726D01*
X132933260Y-77584013D01*
X132938334Y-77581670D01*
X132982430Y-77574453D01*
X133069400Y-77568550D01*
X133187500Y-77564493D01*
X133324986Y-77562815D01*
X133354839Y-77562813D01*
X133538614Y-77565746D01*
X133680593Y-77574469D01*
X133793409Y-77590177D01*
X133886598Y-77613118D01*
X134117754Y-77700535D01*
X134299027Y-77808010D01*
X134431986Y-77937262D01*
X134518199Y-78090010D01*
X134559238Y-78267972D01*
X134563388Y-78354420D01*
X136410550Y-78354420D01*
X136408224Y-78169834D01*
X136389748Y-77975689D01*
X136375336Y-77897252D01*
X136283310Y-77606017D01*
X136143377Y-77338054D01*
X135958177Y-77095932D01*
X135730352Y-76882221D01*
X135462543Y-76699492D01*
X135157393Y-76550314D01*
X134897957Y-76459727D01*
X134724566Y-76412136D01*
X134558718Y-76375155D01*
X134389671Y-76347585D01*
X134206683Y-76328224D01*
X133999011Y-76315871D01*
X133755913Y-76309326D01*
X133536128Y-76307483D01*
X132884406Y-76305699D01*
X132896891Y-76109798D01*
X132932343Y-75897243D01*
X133007759Y-75714543D01*
X133119927Y-75566262D01*
X133265636Y-75456960D01*
X133393936Y-75403624D01*
X133577765Y-75370010D01*
X133796606Y-75365183D01*
X134040200Y-75387363D01*
X134298290Y-75434772D01*
X134560615Y-75505629D01*
X134816918Y-75598155D01*
X135003176Y-75682778D01*
X135092789Y-75726231D01*
X135161142Y-75756580D01*
X135195903Y-75768423D01*
X135197789Y-75768043D01*
X135209785Y-75741518D01*
X135239738Y-75671210D01*
X135284830Y-75563855D01*
X135342243Y-75426190D01*
X135409158Y-75264949D01*
X135477176Y-75100395D01*
X135749103Y-74441328D01*
X135555681Y-74409559D01*
X135471846Y-74393619D01*
X135345817Y-74366847D01*
X135188392Y-74331673D01*
X135010367Y-74290528D01*
X134822537Y-74245842D01*
X134747742Y-74227683D01*
X134424162Y-74152631D01*
X134140868Y-74096362D01*
X133887285Y-74057738D01*
X133652838Y-74035623D01*
X133426951Y-74028878D01*
X133199049Y-74036368D01*
G36*
X136410953Y-78386464D02*
G01*
X136398687Y-78606678D01*
X136372177Y-78811576D01*
X136332175Y-78982258D01*
X136268347Y-79157864D01*
X136120394Y-79447261D01*
X135931279Y-79701876D01*
X135702961Y-79919974D01*
X135437397Y-80099819D01*
X135136546Y-80239676D01*
X134802366Y-80337811D01*
X134666096Y-80359945D01*
X134471368Y-80375327D01*
X134259296Y-80378787D01*
X134047603Y-80370602D01*
X133854009Y-80351051D01*
X133696237Y-80320414D01*
X133616957Y-80296293D01*
X133436900Y-80225706D01*
X133253867Y-80136089D01*
X133086743Y-80037160D01*
X132954411Y-79938638D01*
X132952785Y-79937216D01*
X132880269Y-79875731D01*
X132824477Y-79831950D01*
X132797368Y-79815269D01*
X132794404Y-79819251D01*
X132787698Y-79862271D01*
X132783037Y-79942507D01*
X132781291Y-80047419D01*
X132781291Y-80279570D01*
X131757097Y-80279570D01*
X131729833Y-80279565D01*
X131501168Y-80279165D01*
X131291300Y-80278170D01*
X131106200Y-80276653D01*
X130951839Y-80274689D01*
X130834189Y-80272351D01*
X130759220Y-80269715D01*
X130732904Y-80266854D01*
X130733517Y-80264354D01*
X130750734Y-80227448D01*
X130786825Y-80158111D01*
X130835323Y-80068843D01*
X130937742Y-79883548D01*
X130952760Y-78054155D01*
X132890538Y-78054155D01*
X132891300Y-78198692D01*
X132894991Y-78350560D01*
X132902222Y-78460333D01*
X132913519Y-78535157D01*
X132929409Y-78582181D01*
X132949849Y-78615760D01*
X133026825Y-78707295D01*
X133129963Y-78802589D01*
X133243005Y-78887496D01*
X133349694Y-78947869D01*
X133408888Y-78970021D01*
X133545186Y-78999514D01*
X133723202Y-79014593D01*
X133910887Y-79012309D01*
X134089115Y-78981294D01*
X134237880Y-78917221D01*
X134366589Y-78817203D01*
X134402796Y-78780208D01*
X134497065Y-78654042D01*
X134548070Y-78518053D01*
X134563388Y-78354420D01*
X134559238Y-78267972D01*
X134518199Y-78090010D01*
X134431986Y-77937262D01*
X134299027Y-77808010D01*
X134117754Y-77700535D01*
X133886598Y-77613118D01*
X133793409Y-77590177D01*
X133680593Y-77574469D01*
X133538614Y-77565746D01*
X133354839Y-77562813D01*
X133324986Y-77562815D01*
X133187500Y-77564493D01*
X133069400Y-77568550D01*
X132982430Y-77574453D01*
X132938334Y-77581670D01*
X132933260Y-77584013D01*
X132916854Y-77598726D01*
X132905235Y-77628292D01*
X132897598Y-77680666D01*
X132893140Y-77763799D01*
X132891054Y-77885644D01*
X132890538Y-78054155D01*
X130952760Y-78054155D01*
X130953549Y-77958064D01*
X130955898Y-77677618D01*
X130959185Y-77319947D01*
X130962635Y-77009437D01*
X130966527Y-76741698D01*
X130971139Y-76512336D01*
X130976752Y-76316962D01*
X130983642Y-76151183D01*
X130992089Y-76010609D01*
X131002373Y-75890847D01*
X131014770Y-75787508D01*
X131029561Y-75696199D01*
X131047023Y-75612529D01*
X131067436Y-75532107D01*
X131091079Y-75450541D01*
X131118229Y-75363441D01*
X131225189Y-75090384D01*
X131371666Y-74838022D01*
X131554084Y-74621962D01*
X131774112Y-74441072D01*
X132033420Y-74294222D01*
X132333679Y-74180283D01*
X132676558Y-74098122D01*
X133063728Y-74046611D01*
X133199049Y-74036368D01*
X133426951Y-74028878D01*
X133652838Y-74035623D01*
X133887285Y-74057738D01*
X134140868Y-74096362D01*
X134424162Y-74152631D01*
X134747742Y-74227683D01*
X134822537Y-74245842D01*
X135010367Y-74290528D01*
X135188392Y-74331673D01*
X135345817Y-74366847D01*
X135471846Y-74393619D01*
X135555681Y-74409559D01*
X135749103Y-74441328D01*
X135477176Y-75100395D01*
X135409158Y-75264949D01*
X135342243Y-75426190D01*
X135284830Y-75563855D01*
X135239738Y-75671210D01*
X135209785Y-75741518D01*
X135197789Y-75768043D01*
X135195903Y-75768423D01*
X135161142Y-75756580D01*
X135092789Y-75726231D01*
X135003176Y-75682778D01*
X134816918Y-75598155D01*
X134560615Y-75505629D01*
X134298290Y-75434772D01*
X134040200Y-75387363D01*
X133796606Y-75365183D01*
X133577765Y-75370010D01*
X133393936Y-75403624D01*
X133265636Y-75456960D01*
X133119927Y-75566262D01*
X133007759Y-75714543D01*
X132932343Y-75897243D01*
X132896891Y-76109798D01*
X132884406Y-76305699D01*
X133536128Y-76307483D01*
X133755913Y-76309326D01*
X133999011Y-76315871D01*
X134206683Y-76328224D01*
X134389671Y-76347585D01*
X134558718Y-76375155D01*
X134724566Y-76412136D01*
X134897957Y-76459727D01*
X135157393Y-76550314D01*
X135462543Y-76699492D01*
X135730352Y-76882221D01*
X135958177Y-77095932D01*
X136143377Y-77338054D01*
X136283310Y-77606017D01*
X136375336Y-77897252D01*
X136389748Y-77975689D01*
X136408224Y-78169834D01*
X136410550Y-78354420D01*
X136410953Y-78386464D01*
G37*
X151347446Y-70474541D02*
X150821244Y-70474613D01*
X150576303Y-70474623D01*
X146655699Y-70474623D01*
X146655699Y-70705734D01*
X146631032Y-70986976D01*
X146556584Y-71246359D01*
X146431686Y-71485424D01*
X146255670Y-71705714D01*
X146196118Y-71765210D01*
X145981895Y-71933971D01*
X145745690Y-72057052D01*
X145494517Y-72134510D01*
X145235393Y-72166399D01*
X144975333Y-72152776D01*
X144721353Y-72093697D01*
X144480469Y-71989217D01*
X144259696Y-71839393D01*
X144160543Y-71749001D01*
X143975773Y-71527376D01*
X143840284Y-71283661D01*
X143755256Y-71020643D01*
X143721872Y-70741106D01*
X143721428Y-70713606D01*
X143719678Y-70474632D01*
X143614645Y-70474628D01*
X143521470Y-70487273D01*
X143436356Y-70518040D01*
X143430731Y-70521219D01*
X143411508Y-70531194D01*
X143393855Y-70538962D01*
X143377708Y-70546787D01*
X143363005Y-70556930D01*
X143349681Y-70571655D01*
X143337672Y-70593225D01*
X143326915Y-70623901D01*
X143317346Y-70665947D01*
X143308901Y-70721626D01*
X143301516Y-70793199D01*
X143295127Y-70882930D01*
X143289671Y-70993082D01*
X143285084Y-71125916D01*
X143281302Y-71283696D01*
X143278260Y-71468684D01*
X143275897Y-71683144D01*
X143274147Y-71929337D01*
X143272947Y-72209527D01*
X143272232Y-72525975D01*
X143271940Y-72880946D01*
X143272007Y-73276700D01*
X143272368Y-73715502D01*
X143272960Y-74199614D01*
X143273719Y-74731298D01*
X143274581Y-75312817D01*
X143275482Y-75946433D01*
X143275587Y-76023629D01*
X143276395Y-76661287D01*
X143277081Y-77246582D01*
X143277717Y-77781778D01*
X143278376Y-78269136D01*
X143279131Y-78710917D01*
X143280053Y-79109382D01*
X143281216Y-79466795D01*
X143282693Y-79785415D01*
X143284555Y-80067506D01*
X143286876Y-80315328D01*
X143289729Y-80531143D01*
X143293185Y-80717213D01*
X143297318Y-80875800D01*
X143302200Y-81009164D01*
X143307904Y-81119569D01*
X143314502Y-81209275D01*
X143322068Y-81280544D01*
X143330673Y-81335638D01*
X143340390Y-81376818D01*
X143351293Y-81406346D01*
X143363453Y-81426484D01*
X143376943Y-81439493D01*
X143391837Y-81447636D01*
X143408206Y-81453173D01*
X143426123Y-81458366D01*
X143445661Y-81465477D01*
X143450434Y-81467642D01*
X143465434Y-81472506D01*
X143490541Y-81476976D01*
X143527946Y-81481066D01*
X143579842Y-81484793D01*
X143648420Y-81488173D01*
X143735873Y-81491221D01*
X143844394Y-81493954D01*
X143976174Y-81496387D01*
X144133406Y-81498537D01*
X144318281Y-81500419D01*
X144532993Y-81502049D01*
X144779734Y-81503443D01*
X145060694Y-81504617D01*
X145378068Y-81505587D01*
X145734047Y-81506369D01*
X146130822Y-81506979D01*
X146570588Y-81507432D01*
X147055535Y-81507745D01*
X147587856Y-81507934D01*
X148169743Y-81508013D01*
X148803389Y-81508000D01*
X149008644Y-81507980D01*
X149656347Y-81507876D01*
X150251644Y-81507706D01*
X150796755Y-81507453D01*
X151293897Y-81507098D01*
X151745290Y-81506626D01*
X152153151Y-81506018D01*
X152519700Y-81505258D01*
X152847154Y-81504327D01*
X153137732Y-81503209D01*
X153393652Y-81501886D01*
X153617133Y-81500341D01*
X153810394Y-81498557D01*
X153975652Y-81496516D01*
X154115127Y-81494201D01*
X154231037Y-81491594D01*
X154325600Y-81488678D01*
X154401034Y-81485436D01*
X154459558Y-81481851D01*
X154503391Y-81477905D01*
X154534752Y-81473581D01*
X154555857Y-81468862D01*
X154567363Y-81464540D01*
X154587812Y-81455916D01*
X154606587Y-81449557D01*
X154623760Y-81443203D01*
X154639402Y-81434597D01*
X154653584Y-81421480D01*
X154666377Y-81401594D01*
X154677852Y-81372679D01*
X154688080Y-81332479D01*
X154697133Y-81278733D01*
X154705080Y-81209185D01*
X154711994Y-81121574D01*
X154717945Y-81013644D01*
X154723005Y-80883135D01*
X154727245Y-80727789D01*
X154730735Y-80545348D01*
X154733547Y-80333553D01*
X154734283Y-80252258D01*
X154005361Y-80252258D01*
X151428987Y-80252258D01*
X151478561Y-80177150D01*
X151527878Y-80099968D01*
X151569640Y-80026469D01*
X151604441Y-79951512D01*
X151632877Y-79869953D01*
X151655540Y-79776648D01*
X151673025Y-79666453D01*
X151685926Y-79534225D01*
X151694837Y-79374820D01*
X151700352Y-79183095D01*
X151703064Y-78953907D01*
X151703569Y-78682112D01*
X151702459Y-78362566D01*
X151701830Y-78243932D01*
X151694732Y-76972123D01*
X150889033Y-78069010D01*
X150660779Y-78380183D01*
X150463025Y-78651143D01*
X150293635Y-78885478D01*
X150150473Y-79086780D01*
X150031405Y-79258637D01*
X149934295Y-79404640D01*
X149857007Y-79528378D01*
X149797407Y-79633441D01*
X149753359Y-79723420D01*
X149722728Y-79801903D01*
X149703378Y-79872480D01*
X149693175Y-79938742D01*
X149689983Y-80004277D01*
X149691667Y-80072677D01*
X149692097Y-80081274D01*
X149700968Y-80252372D01*
X148289236Y-80252315D01*
X146877505Y-80252258D01*
X147087516Y-80040500D01*
X147144504Y-79982582D01*
X147198566Y-79926225D01*
X147252076Y-79868322D01*
X147307404Y-79805764D01*
X147366925Y-79735443D01*
X147433011Y-79654251D01*
X147508034Y-79559081D01*
X147594367Y-79446823D01*
X147694383Y-79314370D01*
X147810454Y-79158614D01*
X147944952Y-78976446D01*
X148100251Y-78764760D01*
X148278722Y-78520446D01*
X148482740Y-78240397D01*
X148714675Y-77921504D01*
X148904782Y-77659920D01*
X149143372Y-77331292D01*
X149351508Y-77043957D01*
X149531075Y-76795187D01*
X149683957Y-76582254D01*
X149812041Y-76402430D01*
X149917212Y-76252986D01*
X150001355Y-76131196D01*
X150066357Y-76034331D01*
X150114103Y-75959662D01*
X150146477Y-75904463D01*
X150165366Y-75866004D01*
X150172655Y-75841559D01*
X150170464Y-75828706D01*
X150143913Y-75794504D01*
X150086508Y-75722108D01*
X150001713Y-75615820D01*
X149892992Y-75479945D01*
X149763808Y-75318784D01*
X149617626Y-75136643D01*
X149457909Y-74937822D01*
X149288121Y-74726627D01*
X149111726Y-74507359D01*
X148932187Y-74284323D01*
X148833435Y-74161720D01*
X146381548Y-74161720D01*
X146177742Y-74530430D01*
X146177742Y-79883548D01*
X146381548Y-80252258D01*
X145176111Y-80252258D01*
X144888341Y-80252174D01*
X144650647Y-80251797D01*
X144458482Y-80250935D01*
X144307298Y-80249400D01*
X144192548Y-80247000D01*
X144109685Y-80243546D01*
X144054162Y-80238849D01*
X144021430Y-80232717D01*
X144006943Y-80224961D01*
X144006153Y-80215391D01*
X144014513Y-80203817D01*
X144014599Y-80203721D01*
X144049036Y-80153907D01*
X144094637Y-80072910D01*
X144134908Y-79992055D01*
X144211291Y-79828925D01*
X144219081Y-76995322D01*
X144226871Y-74161720D01*
X146381548Y-74161720D01*
X148833435Y-74161720D01*
X148752969Y-74061821D01*
X148577536Y-73844157D01*
X148409350Y-73635633D01*
X148251877Y-73440554D01*
X148108579Y-73263221D01*
X147982921Y-73107939D01*
X147878366Y-72979010D01*
X147798379Y-72880738D01*
X147751398Y-72823441D01*
X147568963Y-72609180D01*
X147393452Y-72415830D01*
X147231016Y-72249720D01*
X147087805Y-72117180D01*
X146986171Y-72035921D01*
X146865998Y-71949462D01*
X149629840Y-71949462D01*
X149629064Y-72111646D01*
X149636788Y-72230883D01*
X149665828Y-72341426D01*
X149710782Y-72446216D01*
X149740004Y-72505416D01*
X149771423Y-72564074D01*
X149807909Y-72626086D01*
X149852331Y-72695345D01*
X149907561Y-72775746D01*
X149976469Y-72871181D01*
X150061923Y-72985547D01*
X150166796Y-73122735D01*
X150293955Y-73286642D01*
X150446273Y-73481160D01*
X150626618Y-73710185D01*
X150837862Y-73977609D01*
X150861721Y-74007783D01*
X151694732Y-75061195D01*
X151702796Y-73894522D01*
X151704420Y-73545069D01*
X151704074Y-73249230D01*
X151701742Y-73006030D01*
X151697407Y-72814493D01*
X151691051Y-72673644D01*
X151682659Y-72582508D01*
X151679838Y-72565220D01*
X151635584Y-72383117D01*
X151577602Y-72218950D01*
X151511437Y-72086954D01*
X151471687Y-72030972D01*
X151403102Y-71949462D01*
X152704453Y-71949462D01*
X153014885Y-71949728D01*
X153274477Y-71950591D01*
X153487014Y-71952154D01*
X153656276Y-71954517D01*
X153786048Y-71957780D01*
X153880111Y-71962045D01*
X153942248Y-71967413D01*
X153976241Y-71973983D01*
X153985874Y-71981858D01*
X153985208Y-71983602D01*
X153957620Y-72025243D01*
X153911564Y-72091248D01*
X153887735Y-72124631D01*
X153863099Y-72157944D01*
X153840955Y-72187734D01*
X153821164Y-72216933D01*
X153803586Y-72248474D01*
X153788081Y-72285286D01*
X153774511Y-72330303D01*
X153762736Y-72386455D01*
X153752616Y-72456675D01*
X153744013Y-72543894D01*
X153736786Y-72651043D01*
X153730796Y-72781055D01*
X153725904Y-72936861D01*
X153721971Y-73121393D01*
X153718857Y-73337581D01*
X153716422Y-73588359D01*
X153714527Y-73876658D01*
X153713033Y-74205409D01*
X153711801Y-74577543D01*
X153710690Y-74995994D01*
X153709562Y-75463691D01*
X153708508Y-75893354D01*
X153707512Y-76372353D01*
X153706994Y-76829362D01*
X153706941Y-77261464D01*
X153707338Y-77665738D01*
X153708172Y-78039265D01*
X153709429Y-78379127D01*
X153711094Y-78682404D01*
X153713156Y-78946177D01*
X153715599Y-79167527D01*
X153718410Y-79343535D01*
X153721576Y-79471283D01*
X153725082Y-79547849D01*
X153725745Y-79555941D01*
X153749905Y-79741568D01*
X153787624Y-79890647D01*
X153845064Y-80020750D01*
X153928389Y-80149452D01*
X153938811Y-80163494D01*
X154005361Y-80252258D01*
X154734283Y-80252258D01*
X154735752Y-80090145D01*
X154737421Y-79812867D01*
X154738625Y-79499459D01*
X154739435Y-79147664D01*
X154739922Y-78755223D01*
X154740156Y-78319877D01*
X154740211Y-77839368D01*
X154740156Y-77311438D01*
X154740062Y-76733828D01*
X154740002Y-76104279D01*
X154740000Y-75979301D01*
X154739965Y-75343122D01*
X154739847Y-74759325D01*
X154739628Y-74225668D01*
X154739292Y-73739909D01*
X154738822Y-73299805D01*
X154738198Y-72903116D01*
X154737406Y-72547599D01*
X154736426Y-72231012D01*
X154735242Y-71951113D01*
X154733836Y-71705661D01*
X154732190Y-71492413D01*
X154730288Y-71309128D01*
X154728113Y-71153564D01*
X154725645Y-71023478D01*
X154722869Y-70916629D01*
X154719767Y-70830775D01*
X154716321Y-70763674D01*
X154712515Y-70713084D01*
X154708330Y-70676764D01*
X154703749Y-70652470D01*
X154698755Y-70637962D01*
X154698570Y-70637600D01*
X154688285Y-70615437D01*
X154679718Y-70595372D01*
X154670241Y-70577301D01*
X154657226Y-70561121D01*
X154638043Y-70546726D01*
X154610065Y-70534014D01*
X154570663Y-70522880D01*
X154517208Y-70513221D01*
X154447071Y-70504932D01*
X154357624Y-70497910D01*
X154246238Y-70492050D01*
X154110284Y-70487250D01*
X153947135Y-70483404D01*
X153754161Y-70480409D01*
X153528733Y-70478161D01*
X153268224Y-70476556D01*
X152970004Y-70475491D01*
X152631445Y-70474860D01*
X152249918Y-70474561D01*
X151822794Y-70474490D01*
X151347446Y-70474541D01*
G36*
X154733547Y-80333553D02*
G01*
X154730735Y-80545348D01*
X154727245Y-80727789D01*
X154723005Y-80883135D01*
X154717945Y-81013644D01*
X154711994Y-81121574D01*
X154705080Y-81209185D01*
X154697133Y-81278733D01*
X154688080Y-81332479D01*
X154677852Y-81372679D01*
X154666377Y-81401594D01*
X154653584Y-81421480D01*
X154639402Y-81434597D01*
X154623760Y-81443203D01*
X154606587Y-81449557D01*
X154587812Y-81455916D01*
X154567363Y-81464540D01*
X154555857Y-81468862D01*
X154534752Y-81473581D01*
X154503391Y-81477905D01*
X154459558Y-81481851D01*
X154401034Y-81485436D01*
X154325600Y-81488678D01*
X154231037Y-81491594D01*
X154115127Y-81494201D01*
X153975652Y-81496516D01*
X153810394Y-81498557D01*
X153617133Y-81500341D01*
X153393652Y-81501886D01*
X153137732Y-81503209D01*
X152847154Y-81504327D01*
X152519700Y-81505258D01*
X152153151Y-81506018D01*
X151745290Y-81506626D01*
X151293897Y-81507098D01*
X150796755Y-81507453D01*
X150251644Y-81507706D01*
X149656347Y-81507876D01*
X149008644Y-81507980D01*
X148803389Y-81508000D01*
X148169743Y-81508013D01*
X147587856Y-81507934D01*
X147055535Y-81507745D01*
X146570588Y-81507432D01*
X146130822Y-81506979D01*
X145734047Y-81506369D01*
X145378068Y-81505587D01*
X145060694Y-81504617D01*
X144779734Y-81503443D01*
X144532993Y-81502049D01*
X144318281Y-81500419D01*
X144133406Y-81498537D01*
X143976174Y-81496387D01*
X143844394Y-81493954D01*
X143735873Y-81491221D01*
X143648420Y-81488173D01*
X143579842Y-81484793D01*
X143527946Y-81481066D01*
X143490541Y-81476976D01*
X143465434Y-81472506D01*
X143450434Y-81467642D01*
X143445661Y-81465477D01*
X143426123Y-81458366D01*
X143408206Y-81453173D01*
X143391837Y-81447636D01*
X143376943Y-81439493D01*
X143363453Y-81426484D01*
X143351293Y-81406346D01*
X143340390Y-81376818D01*
X143330673Y-81335638D01*
X143322068Y-81280544D01*
X143314502Y-81209275D01*
X143307904Y-81119569D01*
X143302200Y-81009164D01*
X143297318Y-80875800D01*
X143293185Y-80717213D01*
X143289729Y-80531143D01*
X143286876Y-80315328D01*
X143285940Y-80215391D01*
X144006153Y-80215391D01*
X144006943Y-80224961D01*
X144021430Y-80232717D01*
X144054162Y-80238849D01*
X144109685Y-80243546D01*
X144192548Y-80247000D01*
X144307298Y-80249400D01*
X144458482Y-80250935D01*
X144650647Y-80251797D01*
X144888341Y-80252174D01*
X145176111Y-80252258D01*
X146381548Y-80252258D01*
X146177742Y-79883548D01*
X146177742Y-74530430D01*
X146381548Y-74161720D01*
X144226871Y-74161720D01*
X144219081Y-76995322D01*
X144211291Y-79828925D01*
X144134908Y-79992055D01*
X144094637Y-80072910D01*
X144049036Y-80153907D01*
X144014599Y-80203721D01*
X144014513Y-80203817D01*
X144006153Y-80215391D01*
X143285940Y-80215391D01*
X143284555Y-80067506D01*
X143282693Y-79785415D01*
X143281216Y-79466795D01*
X143280053Y-79109382D01*
X143279131Y-78710917D01*
X143278376Y-78269136D01*
X143277717Y-77781778D01*
X143277081Y-77246582D01*
X143276395Y-76661287D01*
X143275587Y-76023629D01*
X143275482Y-75946433D01*
X143274581Y-75312817D01*
X143273719Y-74731298D01*
X143272960Y-74199614D01*
X143272368Y-73715502D01*
X143272007Y-73276700D01*
X143271940Y-72880946D01*
X143272232Y-72525975D01*
X143272947Y-72209527D01*
X143274147Y-71929337D01*
X143275897Y-71683144D01*
X143278260Y-71468684D01*
X143281302Y-71283696D01*
X143285084Y-71125916D01*
X143289671Y-70993082D01*
X143295127Y-70882930D01*
X143301516Y-70793199D01*
X143308901Y-70721626D01*
X143317346Y-70665947D01*
X143326915Y-70623901D01*
X143337672Y-70593225D01*
X143349681Y-70571655D01*
X143363005Y-70556930D01*
X143377708Y-70546787D01*
X143393855Y-70538962D01*
X143411508Y-70531194D01*
X143430731Y-70521219D01*
X143436356Y-70518040D01*
X143521470Y-70487273D01*
X143614645Y-70474628D01*
X143719678Y-70474632D01*
X143721428Y-70713606D01*
X143721872Y-70741106D01*
X143755256Y-71020643D01*
X143840284Y-71283661D01*
X143975773Y-71527376D01*
X144160543Y-71749001D01*
X144259696Y-71839393D01*
X144480469Y-71989217D01*
X144721353Y-72093697D01*
X144975333Y-72152776D01*
X145235393Y-72166399D01*
X145494517Y-72134510D01*
X145745690Y-72057052D01*
X145952166Y-71949462D01*
X146865998Y-71949462D01*
X146986171Y-72035921D01*
X147087805Y-72117180D01*
X147231016Y-72249720D01*
X147393452Y-72415830D01*
X147568963Y-72609180D01*
X147751398Y-72823441D01*
X147798379Y-72880738D01*
X147878366Y-72979010D01*
X147982921Y-73107939D01*
X148108579Y-73263221D01*
X148251877Y-73440554D01*
X148409350Y-73635633D01*
X148577536Y-73844157D01*
X148752969Y-74061821D01*
X148833435Y-74161720D01*
X148932187Y-74284323D01*
X149111726Y-74507359D01*
X149288121Y-74726627D01*
X149457909Y-74937822D01*
X149617626Y-75136643D01*
X149763808Y-75318784D01*
X149892992Y-75479945D01*
X150001713Y-75615820D01*
X150086508Y-75722108D01*
X150143913Y-75794504D01*
X150170464Y-75828706D01*
X150172655Y-75841559D01*
X150165366Y-75866004D01*
X150146477Y-75904463D01*
X150114103Y-75959662D01*
X150066357Y-76034331D01*
X150001355Y-76131196D01*
X149917212Y-76252986D01*
X149812041Y-76402430D01*
X149683957Y-76582254D01*
X149531075Y-76795187D01*
X149351508Y-77043957D01*
X149143372Y-77331292D01*
X148904782Y-77659920D01*
X148714675Y-77921504D01*
X148482740Y-78240397D01*
X148278722Y-78520446D01*
X148100251Y-78764760D01*
X147944952Y-78976446D01*
X147810454Y-79158614D01*
X147694383Y-79314370D01*
X147594367Y-79446823D01*
X147508034Y-79559081D01*
X147433011Y-79654251D01*
X147366925Y-79735443D01*
X147307404Y-79805764D01*
X147252076Y-79868322D01*
X147198566Y-79926225D01*
X147144504Y-79982582D01*
X147087516Y-80040500D01*
X146877505Y-80252258D01*
X148289236Y-80252315D01*
X149700968Y-80252372D01*
X149692097Y-80081274D01*
X149691667Y-80072677D01*
X149689983Y-80004277D01*
X149693175Y-79938742D01*
X149703378Y-79872480D01*
X149722728Y-79801903D01*
X149753359Y-79723420D01*
X149797407Y-79633441D01*
X149857007Y-79528378D01*
X149934295Y-79404640D01*
X150031405Y-79258637D01*
X150150473Y-79086780D01*
X150293635Y-78885478D01*
X150463025Y-78651143D01*
X150660779Y-78380183D01*
X150889033Y-78069010D01*
X151694732Y-76972123D01*
X151701830Y-78243932D01*
X151702459Y-78362566D01*
X151703569Y-78682112D01*
X151703064Y-78953907D01*
X151700352Y-79183095D01*
X151694837Y-79374820D01*
X151685926Y-79534225D01*
X151673025Y-79666453D01*
X151655540Y-79776648D01*
X151632877Y-79869953D01*
X151604441Y-79951512D01*
X151569640Y-80026469D01*
X151527878Y-80099968D01*
X151478561Y-80177150D01*
X151428987Y-80252258D01*
X154005361Y-80252258D01*
X153938811Y-80163494D01*
X153928389Y-80149452D01*
X153845064Y-80020750D01*
X153787624Y-79890647D01*
X153749905Y-79741568D01*
X153725745Y-79555941D01*
X153725082Y-79547849D01*
X153721576Y-79471283D01*
X153718410Y-79343535D01*
X153715599Y-79167527D01*
X153713156Y-78946177D01*
X153711094Y-78682404D01*
X153709429Y-78379127D01*
X153708172Y-78039265D01*
X153707338Y-77665738D01*
X153706941Y-77261464D01*
X153706994Y-76829362D01*
X153707512Y-76372353D01*
X153708508Y-75893354D01*
X153709562Y-75463691D01*
X153710690Y-74995994D01*
X153711801Y-74577543D01*
X153713033Y-74205409D01*
X153714527Y-73876658D01*
X153716422Y-73588359D01*
X153718857Y-73337581D01*
X153721971Y-73121393D01*
X153725904Y-72936861D01*
X153730796Y-72781055D01*
X153736786Y-72651043D01*
X153744013Y-72543894D01*
X153752616Y-72456675D01*
X153762736Y-72386455D01*
X153774511Y-72330303D01*
X153788081Y-72285286D01*
X153803586Y-72248474D01*
X153821164Y-72216933D01*
X153840955Y-72187734D01*
X153863099Y-72157944D01*
X153887735Y-72124631D01*
X153911564Y-72091248D01*
X153957620Y-72025243D01*
X153985208Y-71983602D01*
X153985874Y-71981858D01*
X153976241Y-71973983D01*
X153942248Y-71967413D01*
X153880111Y-71962045D01*
X153786048Y-71957780D01*
X153656276Y-71954517D01*
X153487014Y-71952154D01*
X153274477Y-71950591D01*
X153014885Y-71949728D01*
X152704453Y-71949462D01*
X151403102Y-71949462D01*
X151471687Y-72030972D01*
X151511437Y-72086954D01*
X151577602Y-72218950D01*
X151635584Y-72383117D01*
X151679838Y-72565220D01*
X151682659Y-72582508D01*
X151691051Y-72673644D01*
X151697407Y-72814493D01*
X151701742Y-73006030D01*
X151704074Y-73249230D01*
X151704420Y-73545069D01*
X151702796Y-73894522D01*
X151694732Y-75061195D01*
X150861721Y-74007783D01*
X150837862Y-73977609D01*
X150626618Y-73710185D01*
X150446273Y-73481160D01*
X150293955Y-73286642D01*
X150166796Y-73122735D01*
X150061923Y-72985547D01*
X149976469Y-72871181D01*
X149907561Y-72775746D01*
X149852331Y-72695345D01*
X149807909Y-72626086D01*
X149771423Y-72564074D01*
X149740004Y-72505416D01*
X149710782Y-72446216D01*
X149665828Y-72341426D01*
X149636788Y-72230883D01*
X149629064Y-72111646D01*
X149629840Y-71949462D01*
X146865998Y-71949462D01*
X145952166Y-71949462D01*
X145981895Y-71933971D01*
X146196118Y-71765210D01*
X146255670Y-71705714D01*
X146431686Y-71485424D01*
X146556584Y-71246359D01*
X146631032Y-70986976D01*
X146655699Y-70705734D01*
X146655699Y-70474623D01*
X150576303Y-70474623D01*
X150821244Y-70474613D01*
X151347446Y-70474541D01*
X151822794Y-70474490D01*
X152249918Y-70474561D01*
X152631445Y-70474860D01*
X152970004Y-70475491D01*
X153268224Y-70476556D01*
X153528733Y-70478161D01*
X153754161Y-70480409D01*
X153947135Y-70483404D01*
X154110284Y-70487250D01*
X154246238Y-70492050D01*
X154357624Y-70497910D01*
X154447071Y-70504932D01*
X154517208Y-70513221D01*
X154570663Y-70522880D01*
X154610065Y-70534014D01*
X154638043Y-70546726D01*
X154657226Y-70561121D01*
X154670241Y-70577301D01*
X154679718Y-70595372D01*
X154688285Y-70615437D01*
X154698570Y-70637600D01*
X154698755Y-70637962D01*
X154703749Y-70652470D01*
X154708330Y-70676764D01*
X154712515Y-70713084D01*
X154716321Y-70763674D01*
X154719767Y-70830775D01*
X154722869Y-70916629D01*
X154725645Y-71023478D01*
X154728113Y-71153564D01*
X154730288Y-71309128D01*
X154732190Y-71492413D01*
X154733836Y-71705661D01*
X154735242Y-71951113D01*
X154736426Y-72231012D01*
X154737406Y-72547599D01*
X154738198Y-72903116D01*
X154738822Y-73299805D01*
X154739292Y-73739909D01*
X154739628Y-74225668D01*
X154739847Y-74759325D01*
X154739965Y-75343122D01*
X154740000Y-75979301D01*
X154740002Y-76104279D01*
X154740062Y-76733828D01*
X154740156Y-77311438D01*
X154740211Y-77839368D01*
X154740156Y-78319877D01*
X154739922Y-78755223D01*
X154739435Y-79147664D01*
X154738625Y-79499459D01*
X154737421Y-79812867D01*
X154735752Y-80090145D01*
X154734283Y-80252258D01*
X154733547Y-80333553D01*
G37*
%TD*%
M02*
