%TF.GenerationSoftware,KiCad,Pcbnew,10.0.3*%
%TF.CreationDate,2026-09-15T17:40:26+05:30*%
%TF.ProjectId,AC to DC converter,41432074-6f20-4444-9320-636f6e766572,rev?*%
%TF.SameCoordinates,Original*%
%TF.FileFunction,Other,User*%
%FSLAX46Y46*%
G04 Gerber Fmt 4.6, Leading zero omitted, Abs format (unit mm)*
G04 Created by KiCad (PCBNEW 10.0.3) date 2026-09-15 17:40:26*
%MOMM*%
%LPD*%
G01*
G04 APERTURE LIST*
%ADD10C,0.050000*%
G04 APERTURE END LIST*
%TO.C,D1*%
D10*
X132900000Y-63990000D02*
X136100000Y-63990000D01*
X136100000Y-76850000D01*
X132900000Y-76850000D01*
X132900000Y-63990000D01*
%TO.C,D3*%
X137900000Y-64150000D02*
X141100000Y-64150000D01*
X141100000Y-77010000D01*
X137900000Y-77010000D01*
X137900000Y-64150000D01*
%TO.C,D4*%
X137900000Y-79150000D02*
X141100000Y-79150000D01*
X141100000Y-92010000D01*
X137900000Y-92010000D01*
X137900000Y-79150000D01*
%TO.C,D5*%
X149520000Y-66790000D02*
X155950000Y-66790000D01*
X155950000Y-73210000D01*
X149520000Y-73210000D01*
X149520000Y-66790000D01*
%TO.C,R1*%
X145000000Y-64950000D02*
X148000000Y-64950000D01*
X148000000Y-74670000D01*
X145000000Y-74670000D01*
X145000000Y-64950000D01*
%TO.C,J2*%
X121500000Y-78500000D02*
X130310000Y-78500000D01*
X130310000Y-90000000D01*
X121500000Y-90000000D01*
X121500000Y-78500000D01*
%TO.C,R2*%
X142830000Y-77000000D02*
X152550000Y-77000000D01*
X152550000Y-80000000D01*
X142830000Y-80000000D01*
X142830000Y-77000000D01*
%TO.C,J1*%
X121500000Y-65250000D02*
X130310000Y-65250000D01*
X130310000Y-76750000D01*
X121500000Y-76750000D01*
X121500000Y-65250000D01*
%TO.C,D2*%
X132900000Y-79070000D02*
X136100000Y-79070000D01*
X136100000Y-91930000D01*
X132900000Y-91930000D01*
X132900000Y-79070000D01*
%TO.C,C1*%
X152250000Y-86750000D02*
G75*
G02*
X143750000Y-86750000I-4250000J0D01*
G01*
X143750000Y-86750000D02*
G75*
G02*
X152250000Y-86750000I4250000J0D01*
G01*
%TD*%
M02*
